<?xml version="1.0" standalone="no"?>
<!DOCTYPE svg PUBLIC "-//W3C//DTD SVG 1.1//EN" "http://www.w3.org/Graphics/SVG/1.1/DTD/svg11.dtd" >
<svg>
<metadata>
Created by FontForge 20090622 at Mon Apr 18 21:04:57 2016
 By deploy user
Copyright (c) 2014 by Fontfabric LLC. All rights reserved.
</metadata>
<defs>
<font id="GloberBook" horiz-adv-x="1134" >
  <font-face 
    font-family="Glober Book"
    font-weight="400"
    font-stretch="normal"
    units-per-em="2048"
    panose-1="0 0 0 0 0 0 0 0 0 0"
    ascent="1536"
    descent="-512"
    x-height="1077"
    cap-height="1475"
    bbox="-117 -512 1905 1858"
    underline-thickness="102"
    underline-position="-102"
    unicode-range="U+0020-U+FB02"
  />
<missing-glyph horiz-adv-x="748" 
d="M68 0v1365h544v-1365h-544zM136 68h408v1229h-408v-1229z" />
    <glyph glyph-name="uniFB01" unicode="fi" horiz-adv-x="1142" 
d="M78 1034q0 13 2 23.5t4 14.5l2 5h131v123q0 167 83.5 251.5t283.5 84.5q88 0 179 -14t138 -28l47 -15q6 -50 -26 -82q-17 6 -46.5 14.5t-115.5 22.5t-166 14q-154 0 -214.5 -56.5t-60.5 -181.5v-133h582q10 0 32 -2t28 -2v-1065q-17 -8 -52 -8q-17 0 -30 2t-17 4l-4 2
v983h-539v-983q-14 -8 -51 -8q-16 0 -29 2t-17 4l-5 2v983h-131q-8 14 -8 43z" />
    <glyph glyph-name="uniFB02" unicode="fl" horiz-adv-x="1146" 
d="M78 1034q0 19 8 43h131v123q0 161 81.5 248.5t268.5 87.5q94 0 192.5 -17.5t150.5 -34.5l51 -18v-1458q-17 -8 -52 -8q-17 0 -30 2t-17 4l-4 2v1397q-141 43 -280 43q-143 0 -201 -59t-58 -179v-133h254q9 -27 9 -43t-9 -43h-254v-983q-14 -8 -51 -8q-16 0 -29 2t-17 4
l-5 2v983h-131q-8 24 -8 43z" />
    <glyph glyph-name=".notdef" horiz-adv-x="748" 
d="M68 0v1365h544v-1365h-544zM136 68h408v1229h-408v-1229z" />
    <glyph glyph-name="glyph1" horiz-adv-x="0" 
 />
    <glyph glyph-name="glyph2" horiz-adv-x="682" 
 />
    <glyph glyph-name="space" unicode=" " horiz-adv-x="505" 
 />
    <glyph glyph-name="exclam" unicode="!" horiz-adv-x="503" 
d="M190 8v115q19 8 62 8q19 0 34.5 -2t21.5 -4l5 -2v-115q-18 -8 -61 -8q-19 0 -34.5 2t-21.5 4zM197 1466q2 9 55 9l55 -9l-16 -1130q-12 -10 -39 -10q-13 0 -22.5 2.5t-13.5 5.5l-3 2z" />
    <glyph glyph-name="quotedbl" unicode="&#x22;" horiz-adv-x="634" 
d="M145 1466q19 9 54 9q16 0 29.5 -2.5t18.5 -4.5l5 -2l-21 -397q-9 -6 -32 -6q-10 0 -18.5 1.5t-11.5 3.5l-3 1zM383 1466q16 9 53 9q16 0 29.5 -2.5t18.5 -4.5l5 -2l-20 -397q-10 -6 -33 -6q-10 0 -18.5 1.5t-11.5 3.5l-3 1z" />
    <glyph glyph-name="numbersign" unicode="#" horiz-adv-x="1335" 
d="M90 334q0 21 6 45h236l141 502h-205q-8 28 -8 45t8 45h230l84 297q21 8 49 8q31 0 47 -8l-84 -297h342l84 297q21 8 49 8q31 0 47 -8l-84 -297h201q8 -24 8 -43t-8 -47h-225l-142 -502h195q8 -16 8 -45t-8 -45h-221l-78 -279q-30 -10 -49 -10q-17 0 -47 10l77 279h-342
l-77 -279q-30 -10 -52 -10q-15 0 -45 10l78 279h-209q-6 18 -6 45zM428 379h342l141 502h-342z" />
    <glyph glyph-name="dollar" unicode="$" horiz-adv-x="1144" 
d="M125 1010q0 155 104 249t299 107l-12 242q16 8 51 8q16 0 29.5 -2t19.5 -4l5 -2l-13 -240q96 -1 182 -12.5t124 -23.5l38 -11q0 -25 -6 -45q-9 -22 -24 -37q-136 39 -314 39q-186 0 -280.5 -67.5t-94.5 -192.5q0 -62 27 -107.5t73 -73t105.5 -48t125 -37l131.5 -34
t125.5 -45t105.5 -65t73 -98.5t27 -141q0 -159 -110 -255t-310 -108l15 -262q-15 -8 -52 -8q-16 0 -29.5 2t-18.5 4l-5 2l12 260q-108 1 -208.5 18.5t-146.5 34.5l-46 17q0 32 4 45q8 27 23 37q20 -6 55.5 -15.5t134.5 -25t186 -15.5q187 0 287.5 65.5t100.5 196.5
q0 65 -27 113.5t-73 78t-105.5 50.5t-125 37.5l-131.5 33.5t-125.5 43t-105.5 61.5t-73 94t-27 136.5z" />
    <glyph glyph-name="percent" unicode="%" horiz-adv-x="1529" 
d="M106 1061q0 354 265 354q268 0 268 -354t-268 -354q-130 0 -197.5 84t-67.5 270zM199 1061q0 -151 44 -213t128 -62t128 62t44 213q0 149 -44.5 212.5t-127.5 63.5q-84 0 -128 -63t-44 -213zM322 -12l794 1442q14 8 51 8q16 0 28.5 -2t16.5 -4l5 -2l-795 -1442
q-16 -8 -53 -8q-14 0 -25.5 2t-16.5 4zM895 334q0 354 264 354q268 0 268 -354t-268 -354q-129 0 -196.5 84t-67.5 270zM987 334q0 -151 44 -213t128 -62t128 62t44 213q0 149 -44.5 212.5t-127.5 63.5q-84 0 -128 -63t-44 -213z" />
    <glyph glyph-name="ampersand" unicode="&#x26;" horiz-adv-x="1300" 
d="M104 328q0 66 23 127t55.5 103.5t77.5 81.5t80 61t72 40q-74 165 -74 318q0 165 83 259.5t241 94.5q131 0 206.5 -71.5t75.5 -174.5q0 -62 -21 -117t-54 -97.5t-89.5 -87t-111 -77.5t-136.5 -77q124 -243 379 -432q101 119 150 294q27 2 52.5 -9t37.5 -29
q-44 -160 -172 -308q111 -76 262 -139q1 -27 -11.5 -52.5t-33.5 -37.5q-139 55 -287 154q-19 -20 -46.5 -42t-80.5 -55t-130.5 -54t-162.5 -21q-76 0 -143.5 20.5t-122.5 61t-87 109t-32 157.5zM213 338q0 -125 79 -196.5t212 -71.5q61 0 118.5 14.5t101 38t70.5 42.5t48 38
q-129 98 -229.5 217.5t-166.5 247.5q-233 -134 -233 -330zM438 1067q0 -136 60 -281q173 90 258.5 172.5t85.5 194.5q0 83 -49.5 130.5t-139.5 47.5q-101 0 -158 -67.5t-57 -196.5z" />
    <glyph glyph-name="quotesingle" unicode="'" horiz-adv-x="397" 
d="M145 1466q17 9 54 9q16 0 29.5 -2.5t18.5 -4.5l5 -2l-21 -397q-9 -6 -32 -6q-10 0 -18.5 1.5t-11.5 3.5l-3 1z" />
    <glyph glyph-name="parenleft" unicode="(" horiz-adv-x="583" 
d="M127 655q0 120 17 240.5t43.5 217t59.5 185t65.5 153l59 113t43.5 72.5l17 25q20 2 45 -12q11 -6 19.5 -14.5t11.5 -13.5l2 -5q-11 -15 -30 -44t-67 -125.5t-85 -201t-67 -265.5t-30 -325q0 -119 15.5 -236.5t40 -210t54 -176t59.5 -144t54.5 -105t39.5 -66.5l16 -22
q-8 -19 -33 -33q-11 -6 -22.5 -9t-16.5 -3h-6l-33 48.5t-73.5 135.5t-92.5 214t-73 276t-33 331z" />
    <glyph glyph-name="parenright" unicode=")" horiz-adv-x="581" 
d="M74 -305q11 15 29.5 44t66.5 125.5t84 201t66 265t30 324.5t-28.5 323t-69 269t-81 197t-69.5 130l-28 42q5 19 32 33q11 6 22 9t16 3h6l33 -48.5t73.5 -135.5t92.5 -214.5t73 -276.5t33 -331t-31.5 -329t-76 -280.5t-89.5 -209.5t-76 -140l-32 -46q-21 -2 -46 12
q-11 6 -18.5 14.5t-9.5 13.5z" />
    <glyph glyph-name="asterisk" unicode="*" horiz-adv-x="710" 
d="M129 1253q0 42 21 66l172 -57v178q36 12 67 0v-178l172 57q21 -21 21 -66l-174 -55l110 -151q-24 -28 -53 -37l-111 147l-106 -149q-31 8 -55 36l108 154z" />
    <glyph glyph-name="plus" unicode="+" horiz-adv-x="954" 
d="M123 594q0 13 2 23.5t4 14.5l2 5h303v303q14 8 43 8q13 0 23.5 -2t15.5 -4l4 -2v-303h303q8 -14 8 -43q0 -13 -2 -23.5t-4 -14.5l-2 -5h-303v-303q-14 -8 -43 -8q-13 0 -23.5 2t-15.5 4l-4 2v303h-303q-8 14 -8 43z" />
    <glyph glyph-name="comma" unicode="," horiz-adv-x="446" 
d="M133 -178q7 7 17.5 20.5t29.5 59.5t23 98q-13 0 -24 2t-16 4l-5 2v115q22 8 65 8q19 0 35.5 -2t23.5 -4l7 -2v-82q0 -46 -11.5 -89t-27.5 -71t-32.5 -49.5t-27.5 -31.5l-12 -9z" />
    <glyph glyph-name="hyphen" unicode="-" horiz-adv-x="729" 
d="M164 594q0 13 2 23.5t4 14.5l2 5h385q8 -14 8 -43q0 -13 -2 -23.5t-4 -14.5l-2 -5h-385q-8 14 -8 43z" />
    <glyph glyph-name="period" unicode="." horiz-adv-x="446" 
d="M158 8v115q22 8 65 8q19 0 35.5 -2t23.5 -4l7 -2v-115q-23 -8 -66 -8q-19 0 -35.5 2t-23.5 4z" />
    <glyph glyph-name="slash" unicode="../../../default.htm" horiz-adv-x="894" 
d="M47 -88l692 1616q19 8 54 8q17 0 31 -2t19 -4l5 -2l-692 -1616q-21 -8 -58 -8q-16 0 -28.5 2t-17.5 4z" />
    <glyph glyph-name="zero" unicode="0" horiz-adv-x="1269" 
d="M145 696q0 370 123 543.5t365 173.5q243 0 367 -172t124 -545t-124 -544.5t-367 -171.5t-365.5 171t-122.5 545zM256 696q0 -328 92.5 -476t284.5 -148q195 0 287 147.5t92 476.5q0 330 -92 477.5t-287 147.5q-192 0 -284.5 -148t-92.5 -477z" />
    <glyph glyph-name="one" unicode="1" horiz-adv-x="806" 
d="M78 1073q267 71 414 311q14 9 51 9q16 0 28 -2.5t17 -4.5l4 -2v-1376q-14 -8 -53 -8q-16 0 -29.5 2t-19.5 4l-5 2v942q0 168 11 283q-68 -92 -172 -155.5t-220 -94.5q-35 35 -26 90z" />
    <glyph glyph-name="two" unicode="2" horiz-adv-x="1081" 
d="M117 137q0 58 10.5 109.5t24 89.5t42 76.5t49.5 62t62.5 54.5t64.5 46l72 45.5l70 43.5q15 9 44 28l70 44t60 42t55 45t42 46t34.5 54.5t18.5 60.5t8 73q0 41 -8 76t-29.5 71t-56 61.5t-92 41.5t-132.5 16q-76 0 -157.5 -15.5t-124.5 -30.5l-43 -15q-34 24 -31 77
q17 8 48 20.5t129 33t198 20.5q87 0 159 -19.5t129 -60t89 -110.5t32 -164q0 -39 -6 -74t-14.5 -64t-27 -58t-34.5 -50.5t-46 -48t-52.5 -44t-63.5 -44.5l-69 -44.5l-78 -47.5q-16 -10 -54.5 -32t-59.5 -35t-56 -37.5t-55.5 -44t-46 -50t-39.5 -60.5t-23.5 -69.5t-9.5 -83.5
q0 -12 0.5 -24t1 -20.5t1 -15t0.5 -10.5l1 -4h703q8 -24 8 -49t-8 -49h-797q-12 65 -12 137z" />
    <glyph glyph-name="three" unicode="3" horiz-adv-x="1056" 
d="M111 47q-2 21 6.5 44.5t21.5 33.5q1 0 23 -7t32 -9.5l35 -9t45 -10t48 -7.5t57.5 -6t60.5 -2q371 0 371 297q0 315 -367 315h-108q-15 44 0 88h108q326 0 326 283q0 128 -79 197t-238 69q-74 0 -145.5 -12.5t-106.5 -25.5l-35 -13q-18 10 -28.5 32t-8.5 44q15 7 43.5 18
t115.5 29t175 18q201 0 307.5 -92t106.5 -248q0 -129 -51 -215t-169 -127q261 -76 261 -377q0 -61 -15 -114.5t-50.5 -102t-89 -83t-134.5 -54.5t-183 -20q-57 0 -113 7t-94 16.5t-68.5 19.5t-44.5 17z" />
    <glyph glyph-name="four" unicode="4" horiz-adv-x="1171" 
d="M76 416q0 14 2 25t4 15l2 5l680 923q16 9 55 9q16 0 29 -2.5t18 -4.5l4 -2v-923h209q8 -14 8 -45q0 -14 -2 -25t-4 -15l-2 -5h-209v-363q-16 -8 -51 -8q-16 0 -28.5 2t-17.5 4l-5 2v363h-684q-8 14 -8 45zM199 461h569v774z" />
    <glyph glyph-name="five" unicode="5" horiz-adv-x="1056" 
d="M113 35q-3 22 4 45t22 35q119 -43 277 -43q205 0 305 75t100 234q0 73 -18 128t-61 99.5t-121 68t-191 23.5q-80 0 -240 -20v713h682q18 -50 0 -97h-577v-516q1 0 10 1.5t24 3l34.5 3.5t45.5 3.5t52 1.5q471 0 471 -412q0 -401 -504 -401q-97 0 -176 14t-109 28z" />
    <glyph glyph-name="six" unicode="6" horiz-adv-x="1130" 
d="M141 526q0 169 34.5 307t97.5 237.5t154 169.5t202.5 107t244.5 46q16 -43 0 -86q-123 -13 -221 -49.5t-176.5 -101t-131 -164t-75.5 -232.5q164 92 334 92q89 0 162.5 -25t130.5 -76t89 -136.5t32 -198.5q0 -210 -119.5 -323t-318.5 -113q-202 0 -320.5 135t-118.5 411z
M250 518q0 -226 90 -338t240 -112q148 0 237.5 89.5t89.5 258.5q0 175 -85 261.5t-230 86.5q-161 0 -336 -111q-6 -65 -6 -135z" />
    <glyph glyph-name="seven" unicode="7" horiz-adv-x="1011" 
d="M76 1343q0 15 2 27.5t4 17.5l2 5h834q8 -27 8 -62q-1 -103 -30 -196.5t-75.5 -167.5t-102 -148.5l-111 -156t-101.5 -172t-74.5 -215t-28.5 -267.5q-32 -8 -51 -8q-29 0 -53 8q0 146 26.5 272.5t70 219t96 174.5t106.5 154t100.5 141t79.5 152.5t41 172.5h-735
q-8 18 -8 49z" />
    <glyph glyph-name="eight" unicode="8" horiz-adv-x="1189" 
d="M135 328q0 67 22 130t52.5 107t73.5 84.5t75 62.5t66 42q-114 58 -178 135t-64 196q0 150 110.5 239t297.5 89q189 0 299 -88t110 -238q0 -72 -23.5 -136t-63 -109.5t-74.5 -74.5t-74 -52q66 -31 113.5 -62t91 -75.5t66 -104.5t22.5 -135q0 -165 -122 -261.5t-347 -96.5
q-214 0 -333.5 96.5t-119.5 251.5zM240 336q0 -120 90 -193t266 -73q166 0 260 73.5t94 190.5q0 41 -11.5 77t-27.5 63t-47 54.5t-56 44.5t-70 39.5t-72.5 34.5l-80 33.5l-77.5 32.5q-24 -14 -48.5 -30t-67 -53t-73.5 -76t-55 -98t-24 -120zM287 1092q0 -38 11 -72
t26.5 -59.5t44.5 -50.5t54.5 -42t67.5 -37l70.5 -32.5t76.5 -31.5q28 -11 42 -17q215 133 215 329q0 116 -82 181t-223 65q-139 0 -221 -63.5t-82 -169.5z" />
    <glyph glyph-name="nine" unicode="9" horiz-adv-x="1128" 
d="M111 977q0 210 119.5 323t318.5 113q202 0 320 -135.5t118 -411.5q0 -211 -52.5 -372.5t-150 -265.5t-229.5 -160.5t-299 -67.5q-21 40 -2 86q251 26 404.5 156.5t197.5 390.5q-157 -92 -332 -92q-89 0 -162.5 25t-130.5 76t-88.5 136.5t-31.5 198.5zM221 977
q0 -175 85.5 -261.5t230.5 -86.5q172 0 335 110q7 75 7 135q0 227 -90 339t-240 112q-148 0 -238 -89.5t-90 -258.5z" />
    <glyph glyph-name="colon" unicode=":" horiz-adv-x="458" 
d="M164 8v115q22 8 65 8q19 0 35.5 -2t23.5 -4l7 -2v-115q-23 -8 -66 -8q-19 0 -35.5 2t-23.5 4zM164 817v1150A6EF1EA7D" />
    <glyph glyph-name="semicolon" unicode=";" horiz-adv-x="489" 
d="M162 -178q7 7 17 20.5t28 59.5t22 98q-13 0 -24 2t-16 4l-5 2v115q23 8 66 8q19 0 35.5 -2t22.5 -4l7 -2v-0563EA1A44" />
    <glyph glyph-name="less" unicode="&#x3c;" horiz-adv-x="958" 
d="M119 594q0 15 2 28t4 19l2 6l655 301q9 -12 9 -45q0 -14 -2.5 -25.5t-4.5 -16.5l-2 -5l-573 -264l573 -260q9 -14 9 -47q0 -14 -2.5 -25.5t-4.5 -16.5l-2 -5l-655 301q-8 22 -8 55z" />
    <glyph glyph-name="equal" unicode="=" horiz-adv-x="1042" 
d="M178 377q-12 45 0 86h688q10 -35 0 -86h-688zM178 725q-9 45 0 86h688q11 -38 0 -86h-688z" />
    <glyph glyph-name="greater" unicode="&#x3e;" horiz-adv-x="958" 
d="M168 285q0 15 2 26.5t4 16.5l2 4l574 260l-574 264q-8 16 -8 47q0 15 2 26t4 15l2 4l655 -301q9 -20 9 -53q0 -15 -2 -28.5t-4 -19.5l-3 -7l-655 -301q-8 16 -8 47z" />
    <glyph glyph-name="question" unicode="?" horiz-adv-x="882" 
d="M86 1348q13 7 38.5 18t107.5 29t169 18q185 0 281 -91t96 -237q0 -83 -21 -148.5t-55 -109t-75 -81l-81.5 -75.5t-74.5 -81t-55 -107.5t-21 -146.5q-14 -10 -45 -10q-12 0 -23 2.5t-15 5.5l-5 2q0 95 20 169t52 121t70.5 86t77.5 73.5t71 72.5t52 94t20 127
q0 111 -68.5 176.5t-212.5 65.5q-75 0 -142.5 -12.5t-97.5 -25.5l-30 -13q-18 12 -27 34t-6 44zM287 8v115q22 8 65 8q19 0 35.5 -2t23.5 -4l7 -2v-115q-23 -8 -66 -8q-19 0 -35.5 2t-22.5 4z" />
    <glyph glyph-name="at" unicode="@" horiz-adv-x="1873" 
d="M135 571q0 248 105.5 436t288.5 287t415 99q187 0 336.5 -56.5t248.5 -159t151.5 -244t52.5 -312.5q0 -209 -90 -328t-254 -119q-170 0 -215 145q-74 -145 -265 -145q-70 0 -126.5 21t-102 65.5t-71 123t-25.5 185.5q0 109 25 188t71 124t102.5 65.5t126.5 20.5
q171 0 248 -119v113q16 8 45 8q13 0 24.5 -2t17.5 -4l5 -2v-510q0 -201 144 -201q106 0 177.5 92.5t71.5 278.5q0 318 -185.5 507t-512.5 189q-155 0 -287 -52t-226.5 -147.5t-148 -236t-53.5 -310.5q0 -148 37 -270t102 -206.5t154.5 -142t191.5 -84t216 -26.5
q158 0 304 47t263 125q39 -16 39 -59q-264 -193 -625 -193q-159 0 -297.5 51t-246 148.5t-170 254.5t-62.5 355zM684 569q0 -321 250 -321q99 0 159.5 65t63.5 154v201q0 91 -60.5 158t-162.5 67q-54 0 -96 -14t-78.5 -48t-56 -100t-19.5 -162z" />
    <glyph glyph-name="A" unicode="A" horiz-adv-x="1314" 
d="M41 8l563 1458q18 9 53 9q16 0 29.5 -2.5t19.5 -4.5l5 -2l563 -1458q-18 -8 -57 -8q-16 0 -30 2t-20 4l-6 2l-162 418h-690l-164 -418q-16 -8 -55 -8q-16 0 -28 2t-16 4zM342 520h623l-275 711q-11 29 -19.5 55.5t-10.5 38.5l-3 12h-4q-9 -43 -32 -106z" />
    <glyph glyph-name="B" unicode="B" horiz-adv-x="1282" 
d="M209 0v1475h496q107 0 186 -31t124 -86t66 -122.5t21 -148.5q0 -50 -9.5 -95t-21.5 -75.5t-33 -59.5t-34.5 -43.5t-37.5 -31.5t-29.5 -20l-21.5 -12l15 -6q15 -5 26 -11l31.5 -17t36.5 -25.5l36 -34t34.5 -45.5t27.5 -57.5t20 -72t7 -86.5q0 -185 -107.5 -290
t-328.5 -105h-504zM315 92h385q180 0 258 76.5t78 226.5q0 157 -82 231t-256 74h-383v-608zM315 791h369q307 0 307 296q0 143 -71.5 219t-239.5 76h-365v-591z" />
    <glyph glyph-name="C" unicode="C" horiz-adv-x="1140" 
d="M143 737q0 758 553 758q99 0 184.5 -17t121.5 -34l36 -17q-3 -45 -34 -81q-13 6 -37.5 15t-101.5 24.5t-154 15.5q-85 0 -152 -19.5t-125 -67t-96.5 -123t-60 -190.5t-21.5 -266t21.5 -265.5t59.5 -189t96 -120.5t125 -65t153 -19q84 0 163 14t116 28l36 13
q32 -32 35 -84q-5 -3 -14.5 -7.5t-44 -16t-73.5 -20.5t-102 -16t-131 -7q-277 0 -415 187.5t-138 569.5z" />
    <glyph glyph-name="D" unicode="D" horiz-adv-x="1349" 
d="M209 0v1475h405q151 0 257.5 -36.5t183.5 -121t114 -228t37 -352.5q0 -168 -24.5 -293t-71.5 -209.5t-120 -137t-164.5 -75t-211.5 -22.5h-405zM315 94h289q98 0 171.5 17.5t135 61t100.5 116t60 184.5t21 264q0 153 -21.5 265t-60 184.5t-100 116t-135 60.5t-171.5 17
h-289v-1286z" />
    <glyph glyph-name="E" unicode="E" horiz-adv-x="1138" 
d="M209 0v1475h801q8 -24 8 -45q0 -31 -8 -50h-695v-585h592q8 -28 8 -45q0 -29 -8 -48h-592v-608h715q8 -28 8 -45q0 -30 -8 -49h-821z" />
    <glyph glyph-name="F" unicode="F" horiz-adv-x="1091" 
d="M209 8v1467h797q8 -24 8 -48q0 -23 -8 -47h-691v-606h600q9 -18 9 -45q0 -20 -9 -47h-600v-674q-16 -8 -53 -8q-16 0 -29.5 2t-18.5 4z" />
    <glyph glyph-name="G" unicode="G" horiz-adv-x="1269" 
d="M141 737q0 374 149 566t429 192q105 0 198.5 -17t134.5 -34l42 -17q-7 -47 -35 -79q-16 6 -45.5 15t-115 23.5t-165.5 14.5q-85 0 -154.5 -19.5t-131 -67t-103.5 -122.5t-66 -190.5t-24 -266.5t24 -266t65.5 -188.5t103 -120t131 -65.5t155.5 -19q117 0 279 33v577h-369
q-8 18 -8 47q0 15 2 26.5t4 16.5l2 4h473v-733q-17 -8 -49 -19t-135.5 -29.5t-212.5 -18.5q-281 0 -429.5 189.5t-148.5 567.5z" />
    <glyph glyph-name="H" unicode="H" horiz-adv-x="1384" 
d="M209 8v1458q18 9 53 9q16 0 29 -2.5t19 -4.5l5 -2v-661h754v661q18 9 53 9q16 0 29.5 -2.5t18.5 -4.5l6 -20BDAE8FA30" />
    <glyph glyph-name="I" unicode="I" horiz-adv-x="524" 
d="M209 8v1458q16 9 53 9q16 0 29.5 -2.5t18.5 -4.5l5 -2v-1458q-16 -8 -53 -8q-17 0 -30.5 2t-17.5 4z" />
    <glyph glyph-name="J" unicode="J" horiz-adv-x="870" 
d="M55 41v9q0 50 31 75l35 -13.5t84.5 -22t118.5 -13.5q115 0 177 59.5t62 198.5v1132q14 9 53 9q16 0 29.5 -0BC8506A2F" />
    <glyph glyph-name="K" unicode="K" horiz-adv-x="1249" 
d="M209 8v1458q18 9 55 9q16 0 28.5 -2.5t17.5 -4.5l5 -2v-653h256l459 653q27 9 57 9q22 0 58 -9l-483 -690l542 -768q-20 -8 -61 -8q-18 0 -34.5 2t-24.5 4l-7 2l-504 711h-258v-711q-16 -8 -53 -8q-16 0 -29 2t-19 4z" />
    <glyph glyph-name="L" unicode="L" horiz-adv-x="1038" 
d="M209 0v1466q18 9 53 9q16 0 29.5 -2.5t18.5 -4.5l5 -2v-1370h662q8 -24 8 -47q0 -17 -8 -49h-768z" />
    <glyph glyph-name="M" unicode="M" horiz-adv-x="1724" 
d="M209 8v1458q26 9 67 9q17 0 34 -2.5t26 -4.5l8 -2l422 -761q55 -98 82 -166h4q18 44 66 129l234 408l222 390q45 9 70 9q21 0 39 -2.5t25 -4.5l8 -2v-1458q-17 -8 -54 -8q-16 0 -29.5 2t-18.5 4l-5 2v1039q0 221 10 303h-6q-13 -55 -104 -215l-420 -729q-16 -9 -41 -9
q-11 0 -21.5 2.5t-14.5 4.5l-5 2l-212 381.5l-192 345.5q-38 68 -67.5 132t-34.5 85h-6q14 -68 14 -312v-1030q-14 -8 -49 -8q-16 0 -28.5 2t-17.5 4z" />
    <glyph glyph-name="N" unicode="N" horiz-adv-x="1421" 
d="M209 8v1458q22 9 63 9q19 0 34.5 -2.5t21.5 -4.5l6 -2l674 -1116q29 -48 56 -100.5t40 -80.5l12 -28h4q-8 113 -8 273v1052q14 9 51 9q16 0 28 -2.5t17 -4.5l4 -2v-1458q-18 -8 -61 -8q-19 0 -35 2t-22 4l-7 2l-677 1131q-32 51 -57.5 100t-35.5 73l-10 23h-4
q8 -89 8 -286v-1041q-16 -8 -53 -8q-15 0 -27 2t-17 4z" />
    <glyph glyph-name="O" unicode="O" horiz-adv-x="1392" 
d="M143 737q0 385 144 571.5t409 186.5t409 -186t144 -572q0 -387 -143.5 -572t-409.5 -185t-409.5 185t-143.5 572zM258 737q0 -179 30.5 -308.5t88.5 -207t137 -113.5t182 -36q212 0 325.5 157t113.5 508q0 180 -30.5 310t-89 207t-137.5 113t-182 36t-182 -36t-137 -113
t-88.5 -207t-30.5 -310z" />
    <glyph glyph-name="P" unicode="P" horiz-adv-x="1226" 
d="M209 8v1467h506q191 0 300 -118t109 -313q0 -193 -109 -310.5t-300 -117.5h-400v-608q-16 -8 -51 -8q-17 0 -31 2t-19 4zM315 713h396q143 0 222 87.5t79 241.5q0 159 -78.5 248.5t-222.5 89.5h-396v-667z" />
    <glyph glyph-name="Q" unicode="Q" horiz-adv-x="1392" 
d="M143 737q0 385 144 571.5t409 186.5t409 -186t144 -572q0 -462 -211 -645q105 -105 262 -143q-7 -64 -61 -92q-74 20 -149.5 71t-126.5 115q-111 -63 -267 -63q-266 0 -409.5 185t-143.5 572zM258 737q0 -179 30.5 -308.5t88.5 -207t137 -113.5t182 -36q212 0 325.5 157
t113.5 508q0 180 -30.5 310t-89 207t-137.5 113t-182 36t-182 -36t-137 -113t-88.5 -207t-30.5 -310z" />
    <glyph glyph-name="R" unicode="R" horiz-adv-x="1265" 
d="M209 8v1467h493q191 0 301.5 -112.5t110.5 -299.5q0 -156 -79.5 -261t-221.5 -136l354 -658q-20 -8 -61 -8q-17 0 -33 2t-23 4l-8 2l-344 645h-383v-645q-16 -8 -51 -8q-17 0 -31 2t-19 4zM315 748h385q139 0 220 83.5t81 231.5q0 149 -81 233t-220 84h-385v-632z" />
    <glyph glyph-name="S" unicode="S" horiz-adv-x="1148" 
d="M131 57q0 51 29 88q20 -7 56 -18t135 -29t186 -18q186 0 286.5 77t100.5 224q0 43 -10 79.5t-25.5 63.5t-42.5 50t-52 38.5t-64.5 31t-69.5 24.5l-76 22q-169 49 -230 76q-157 71 -202 199q-21 59 -21 133q0 184 122.5 290.5t348.5 106.5q102 0 196 -12.5t138 -25.5
l43 -13q0 -53 -29 -86q-154 43 -334 43q-187 0 -281.5 -78.5t-94.5 -218.5q0 -60 20 -105.5t49.5 -74.5t83 -54t99 -39.5t119.5 -34.5l12 -3q52 -14 88 -26t82.5 -31t78 -39.5t64.5 -52t53 -67.5t32.5 -85.5t12.5 -108.5q0 -190 -128 -296.5t-359 -106.5q-71 0 -139.5 8
t-116.5 19.5t-85.5 22.5t-55.5 19z" />
    <glyph glyph-name="T" unicode="T" horiz-adv-x="1091" 
d="M63 1427q0 13 2.5 25t4.5 18l2 5h948q8 -17 8 -48q0 -13 -2 -24.5t-4 -16.5l-2 -6h-416v-1372q-16 -8 -53 -8q-17 0 -30.5 2t-18.5 4l-4 2v1372h-426q-9 18 -9 47z" />
    <glyph glyph-name="U" unicode="U" horiz-adv-x="1366" 
d="M199 467v999q18 9 53 9q16 0 30 -2.5t20 -4.5l5 -2v-1013q0 -181 99.5 -281t279.5 -100q179 0 278 100t99 281v1013q16 9 51 9q16 0 29 -2.5t19 -4.5l5 -2v-999q0 -231 -131.5 -359t-353.5 -128q-221 0 -352 129t-131 358z" />
    <glyph glyph-name="V" unicode="V" horiz-adv-x="1261" 
d="M53 1464q17 11 58 11q16 0 28.5 -2.5t17.5 -4.5l5 -2l424 -1177q14 -38 24.5 -75.5t14.5 -55.5l4 -19h6q10 64 41 148l424 1179q16 9 53 9q17 0 31 -2.5t19 -4.5l5 -2l-524 -1458q-20 -8 -53 -8q-15 0 -28 2t-19 4l-6 2z" />
    <glyph glyph-name="W" unicode="W" horiz-adv-x="1943" 
d="M61 1466q17 9 54 9q17 0 31 -2.5t19 -4.5l5 -2l334 -1118q16 -52 28.5 -104.5t16.5 -79.5l4 -27h6q8 92 43 211l328 1118q14 9 51 9q16 0 29 -2.5t18 -4.5l4 -2l328 -1118q15 -54 25 -106.5t13 -78.5l3 -26h4q10 88 47 211l320 1118q16 9 51 9q15 0 27.5 -2.5t17.5 -4.5
l6 -2l-418 -1458q-18 -8 -53 -8q-15 0 -28 2t-19 4l-6 2l-328 1116q-16 62 -26.5 113.5t-12.5 72.5l-2 21h-6q-4 -68 -41 -207l-328 -1116q-32 -8 -57 -8q-21 0 -53 8z" />
    <glyph glyph-name="X" unicode="X" horiz-adv-x="1226" 
d="M61 8l471 750l-450 708q20 9 65 9q17 0 32.5 -2.5t22.5 -4.5l7 -2l401 -630l410 630q36 9 61 9q26 0 62 -9l-461 -704l483 -752q-22 -10 -65 -10q-19 0 -35 2t-23 4l-6 2l-432 672l-420 -672q-32 -8 -61 -8q-30 0 -62 8z" />
    <glyph glyph-name="Y" unicode="Y" horiz-adv-x="1269" 
d="M53 1466q23 9 66 9q18 0 33.5 -2.5t21.5 -4.5l6 -2l457 -731l469 731q18 9 57 9q19 0 35 -2.5t22 -4.5l7 -2l-541 -843v-615q-18 -8 -53 -8q-16 0 -29 2t-18 4l-6 2v613z" />
    <glyph glyph-name="Z" unicode="Z" horiz-adv-x="1187" 
d="M84 49q0 17 8 49l844 1278h-789q-8 32 -8 51q0 24 8 48h912q8 -24 8 -48q0 -19 -8 -51l-844 -1278h870q9 -27 9 -49q0 -13 -9 -49h-993q-8 32 -8 49z" />
    <glyph glyph-name="bracketleft" unicode="[" horiz-adv-x="647" 
d="M205 -348v2007h354q8 -14 8 -47q0 -15 -2 -26.5t-4 -15.5l-2 -5h-252v-1819h252q8 -16 8 -47q0 -15 -2 -26.5t-4 -16.5l-2 -4h-354z" />
    <glyph glyph-name="backslash" unicode="\" horiz-adv-x="899" 
d="M49 1526q18 10 55 10q17 0 31.5 -2.5t20.5 -5.5l6 -2l688 -1612q-18 -10 -55 -10q-16 0 -30.5 2.5t-20.5 5.5l-7 2z" />
    <glyph glyph-name="bracketright" unicode="]" horiz-adv-x="645" 
d="M78 -301q0 14 2 25.5t4 16.5l2 5h252v1819h-252q-8 14 -8 47q0 15 2 26.5t4 15.5l2 5h354v-2007h-354q-8 14 -8 47z" />
    <glyph glyph-name="asciicircum" unicode="^" horiz-adv-x="1056" 
d="M119 934l358 532q14 9 51 9q16 0 29 -2.5t18 -4.5l5 -2l358 -532q-12 -8 -49 -8q-16 0 -29.5 2t-18.5 4l-5 2l-310 459l-307 -459q-14 -8 -51 -8q-16 0 -28.5 2t-16.5 4z" />
    <glyph glyph-name="underscore" unicode="_" horiz-adv-x="1095" 
d="M123 -80q0 13 2 22.5t4 13.5l2 3h836q8 -10 8 -39q0 -14 -2 -24t-4 -14l-2 -3h-836q-8 10 -8 41z" />
    <glyph glyph-name="grave" unicode="`" horiz-adv-x="487" 
d="M90 1608q12 21 39.5 34.5t56.5 12.5l228 -303q-20 -33 -68 -39z" />
    <glyph glyph-name="a" unicode="a" horiz-adv-x="1048" 
d="M102 297q0 315 381 315q154 0 295 -18v139q0 149 -64.5 212t-201.5 63q-70 0 -144 -13.5t-112 -26.5l-39 -14q-18 12 -27 33q-11 27 -6 47q18 7 49 17.5t120.5 28.5t170.5 18q108 0 179 -26.5t109.5 -84t53.5 -131.5t15 -184v-664q-12 -8 -41 -8q-12 0 -23 2t-15 4l-5 2
l-17 172q-46 -97 -139 -148.5t-221 -51.5q-145 0 -231.5 82.5t-86.5 234.5zM211 297q0 -116 62 -172.5t173 -56.5q147 0 239.5 98t92.5 258v90q-202 18 -278 18q-150 0 -219.5 -55t-69.5 -180z" />
    <glyph glyph-name="b" unicode="b" 
d="M176 8v1520q14 8 51 8q16 0 29 -2t18 -4l5 -2v-610q99 180 329 180q95 0 166.5 -29t125 -93t81 -173.5t27.5 -263.5t-27.5 -263.5t-81 -173.5t-125 -93t-166.5 -29q-230 0 -329 180v-152q-15 -8 -52 -8q-16 0 -29 2t-18 4zM279 410q0 -84 32.5 -160t102.5 -128t164 -52
q171 0 246 108.5t75 360.5t-75 360.5t-246 108.5q-70 0 -128 -29t-94 -77t-55.5 -105.5t-21.5 -118.5v-268z" />
    <glyph glyph-name="c" unicode="c" horiz-adv-x="909" 
d="M125 539q0 273 111 416t319 143q74 0 136 -12t87 -24l25 -13q0 -55 -35 -80q-74 37 -193 37q-177 0 -260.5 -116.5t-83.5 -350.5q0 -235 86.5 -349t266.5 -114q56 0 107 11t74 21l23 11q33 -20 37 -80q-11 -7 -31.5 -16.5t-91 -26t-147.5 -16.5q-208 0 -319 143t-111 416
z" />
    <glyph glyph-name="d" unicode="d" 
d="M127 539q0 154 27 263.5t80.5 173.5t125 93t166.5 29q231 0 330 -180v610q14 8 51 8q16 0 29 -2t18 -4l4 -2v-1520q-16 -8 -43 -8q-12 0 -23.5 2t-16.5 4l-5 2l-10 158q-100 -186 -334 -186q-95 0 -166.5 29t-125 93t-80.5 173.5t-27 263.5zM236 539q0 -252 75 -360.5
t246 -108.5q94 0 164 52t102.5 128t32.5 160v260q-1 84 -33.5 159t-102 127t-163.5 52q-171 0 -246 -108.5t-75 -360.5z" />
    <glyph glyph-name="e" unicode="e" horiz-adv-x="1042" 
d="M125 545q0 280 114.5 416.5t313.5 136.5q181 0 279 -104.5t98 -280.5q0 -56 -6 -108t-12 -75l-5 -24h-676q10 -230 93 -330t251 -100q72 0 136.5 19t93.5 38l29 19q40 -28 43 -80q-5 -4 -13.5 -10t-39.5 -22t-65.5 -28t-91 -22t-116.5 -10q-209 0 -317.5 143.5
t-108.5 421.5zM231 590h582q0 1 1 7.5t2.5 18.5t3 27t2.5 37t1 45q0 59 -15 109t-46.5 90t-84.5 63t-124 23q-145 0 -230 -103.5t-92 -316.5z" />
    <glyph glyph-name="f" unicode="f" horiz-adv-x="704" 
d="M72 1034q0 19 8 43h143v123q0 79 14 137t48 104.5t95.5 70.5t151.5 24q49 0 98 -7t73 -15l24 -7v-8q0 -45 -29 -74q-63 23 -153 23q-128 0 -173.5 -57.5t-45.5 -180.5v-133h315q8 -24 8 -43t-8 -43h-315v-983q-15 -8 -52 -8q-16 0 -29 2t-17 4l-5 2v983h-143q-8 24 -8 43
z" />
    <glyph glyph-name="g" unicode="g" horiz-adv-x="1067" 
d="M86 -217q0 58 20 111.5t52 92t57 61t51 40.5q-51 44 -51 119q0 104 96 223q-178 84 -178 313q0 167 98.5 261t276.5 94q127 0 217 -49l270 47q10 -24 10 -49t-10 -50l-194 -12q82 -91 82 -242q0 -165 -97.5 -258.5t-277.5 -93.5q-57 0 -123 15q-68 -81 -68 -175
q1 -36 24.5 -60t63 -36.5t90.5 -19.5t106.5 -13.5t111.5 -15.5t106 -27.5t89 -46.5t62 -76.5t23 -113.5q0 -143 -130.5 -238.5t-368.5 -95.5q-205 0 -306.5 82t-101.5 213zM193 -199q0 -107 77.5 -168t225.5 -61q180 0 287.5 66t107.5 174q0 68 -37.5 109.5t-103 58.5
t-133 25l-149 18t-130.5 28q-68 -45 -106.5 -113t-38.5 -137zM238 745q0 -133 73 -202.5t197 -69.5q125 0 197.5 69.5t72.5 202.5q0 132 -72.5 201.5t-197.5 69.5q-124 0 -197 -69.5t-73 -201.5z" />
    <glyph glyph-name="h" unicode="h" horiz-adv-x="1124" 
d="M176 8v1520q16 8 51 8q16 0 29 -2t18 -4l5 -2v-617q131 187 364 187q145 0 228 -83t83 -222v-785q-16 -8 -02A396AA8A" />
    <glyph glyph-name="i" unicode="i" horiz-adv-x="466" 
d="M168 1331v115q22 8 65 8q19 0 35.5 -2t23.5 -4l7 -2v-115q-23 -8 -66 -8q-19 0 -35.5 2t-23.5 4zM182 8v1061q14 8 51 8q16 0 29 -2t18 -4l5 -2v-1061q-15 -8 -52 -8q-16 0 -29 2t-18 4z" />
    <glyph glyph-name="j" unicode="j" horiz-adv-x="466" 
d="M-117 -469q0 16 3.5 29.5t6.5 18.5l3 5q33 -8 88 -8q101 0 149.5 56t48.5 180v1257q12 8 51 8q16 0 29 -2t18 -4l5 -2v-1249q0 -166 -72.5 -249t-204.5 -83q-38 0 -68.5 4.5t-41.5 9.5l-11 4q-4 11 -4 25zM168 1337v115q20 8 65 8q19 0 35 -2t22 -4l7 -2v-115
q-21 -8 -64 -8q-20 0 -36.5 2t-22.5 4z" />
    <glyph glyph-name="k" unicode="k" horiz-adv-x="1015" 
d="M176 8v1520q16 8 51 8q16 0 29 -2t18 -4l5 -2v-922h217l319 463q20 8 59 8q16 0 29 -1.5t18 -3.5l5 -1l-3402CDB54A94" />
    <glyph glyph-name="l" unicode="l" horiz-adv-x="475" 
d="M186 8v1520q15 8 52 8q16 0 29 -2t17 -4l5 -2v-1520q-14 -8 -51 -8q-16 0 -29 2t-18 4z" />
    <glyph glyph-name="m" unicode="m" horiz-adv-x="1720" 
d="M176 8v1061q16 8 51 8q16 0 29.5 -2t19.5 -4l5 -2v-156q122 185 342 185q102 0 174 -50t100 -151q132 201 363 201q136 0 213 -82.5t77 -222.5v-785q-16 -8 -51 -8q-16 0 -29 2t-18 4l-4 2v762q0 123 -55.5 181.5t-169.5 58.5q-95 0 -179.5 -61.5t-130.5 -174.5v-766
q-16 -8 -51 -8q-16 0 -28.5 2t-17.5 4l-5 2v762q0 123 -55.5 181.5t-169.5 58.5q-91 0 -175.5 -62.5t-129.5 -169.5v-770q-19 -8 -54 -8q-16 0 -28.5 2t-17.5 4z" />
    <glyph glyph-name="n" unicode="n" horiz-adv-x="1122" 
d="M176 8v1061q16 8 51 8q16 0 29 -2t18 -4l5 -2v-158q131 187 364 187q145 0 228 -83t83 -222v-785q-16 -8 -02A396AA8A" />
    <glyph glyph-name="o" unicode="o" horiz-adv-x="1105" 
d="M127 539q0 295 108.5 427t317.5 132t317.5 -132t108.5 -427t-108.5 -427t-317.5 -132t-317.5 132t-108.5 427zM233 539q0 -133 22 -226t65 -146.5t99.5 -77t133.5 -23.5t133.5 23.5t99.5 77t64.5 146.5t21.5 226t-21.5 226t-64.5 146.5t-99.5 77t-133.5 23.5
t-133.5 -23.5t-99.5 -77t-65 -146.5t-22 -226z" />
    <glyph glyph-name="p" unicode="p" 
d="M176 -494v1563q14 8 51 8q16 0 29 -2t18 -4l5 -2v-151q99 180 329 180q95 0 166.5 -29t125 -93t81 -173.5t27.5 -263.5t-27.5 -263.5t-81 -173.5t-125 -93t-166.5 -29q-230 0 -329 180v-654q-15 -8 -52 -8q-16 0 -29 2t-18 4zM279 410q0 -84 32.5 -160t102.5 -128
t164 -52q171 0 246 108.5t75 360.5t-75 360.5t-246 108.5q-70 0 -128 -29t-94 -77t-55.5 -105.5t-21.5 -118.5v-268z" />
    <glyph glyph-name="q" unicode="q" 
d="M127 539q0 154 27 263.5t80.5 173.5t125 93t166.5 29q231 0 330 -180v151q12 8 49 8q16 0 29.5 -2t18.5 -4l5 -2v-1563q-14 -8 -51 -8q-16 0 -29 2t-18 4l-4 2v654q-99 -180 -330 -180q-95 0 -166.5 29t-125 93t-80.5 173.5t-27 263.5zM236 539q0 -252 75 -360.5
t246 -108.5q91 0 159.5 49t102.5 122t37 156v281q-2 61 -22.5 118.5t-56.5 105.5t-93 77t-127 29q-171 0 -246 -108.5t-75 -360.5z" />
    <glyph glyph-name="r" unicode="r" horiz-adv-x="794" 
d="M176 8v1061q14 8 51 8q16 0 29 -2t18 -4l5 -2v-188q109 215 296 215q103 0 173 -47q-3 -59 -50 -86q-68 36 -147 36q-78 0 -149.5 -66t-122.5 -177v-748q-15 -8 -52 -8q-16 0 -29 2t-18 4z" />
    <glyph glyph-name="s" unicode="s" horiz-adv-x="907" 
d="M121 45v9q0 45 29 71q15 -6 41 -15t100 -23.5t139 -14.5q122 0 194 51.5t72 157.5q0 43 -14.5 76.5t-36.5 54.5t-58 38.5t-68 27.5t-78 23q-13 3 -19 5q-51 15 -87 28t-79.5 37t-70.5 52.5t-45.5 73t-18.5 98.5q0 140 92 221.5t270 81.5q74 0 140.5 -12t96.5 -24l30 -11
q2 -22 -7 -45t-24 -35q-100 37 -225 37q-132 0 -200.5 -53.5t-68.5 -155.5q0 -36 15 -66t36.5 -49.5t58.5 -37.5t67 -28.5t77 -23.5q136 -40 190 -72q134 -76 134 -237q0 -144 -92.5 -224.5t-272.5 -80.5q-88 0 -167.5 16.5t-114.5 32.5z" />
    <glyph glyph-name="t" unicode="t" horiz-adv-x="735" 
d="M63 1034q0 14 2.5 24.5t4.5 14.5l2 4h164v203q39 26 84 26q9 0 18 -1v-228h313q11 -14 11 -43q0 -13 -3 -23.5t-5 -14.5l-3 -5h-313v-631q0 -156 49.5 -223t177.5 -67q26 0 54 2.5t43 5.5l14 2q10 -16 10 -45q0 -12 -1.5 -21.5t-2.5 -13.5l-2 -4q-80 -16 -139 -16
q-168 0 -236.5 93.5t-68.5 284.5v633h-164q-9 12 -9 43z" />
    <glyph glyph-name="u" unicode="u" horiz-adv-x="1122" 
d="M168 285v784q16 8 51 8q16 0 29 -2t18 -4l4 -2v-762q0 -239 246 -239q98 0 188 61.5t140 169.5v770q16 8 51 8q16 0 28.5 -2t17.5 -4l5 -2v-1061q-16 -8 -51 -8q-16 0 -28.5 2t-17.5 4l-5 2v158q-136 -186 -365 -186q-145 0 -228 83t-83 222z" />
    <glyph glyph-name="v" unicode="v" horiz-adv-x="1028" 
d="M57 1069q19 8 56 8q17 0 31 -2t19 -4l5 -2l283 -741q19 -50 35 -101.5t22 -77.5l6 -26h6q23 86 66 201l280 745q14 8 49 8q15 0 28 -2t19 -4l5 -2l-398 -1061q-20 -8 -53 -8q-16 0 -29 2t-19 4l-5 2z" />
    <glyph glyph-name="w" unicode="w" horiz-adv-x="1626" 
d="M68 1069q18 8 53 8q16 0 28.5 -2t16.5 -4l4 -2l250 -766q26 -84 41 -174h6q13 80 45 174l254 766q18 8 51 8q16 0 29 -2t18 -4l4 -2l254 -762q23 -72 41 -178h6q12 72 45 176l248 764q16 8 47 8q16 0 28.5 -2t16.5 -4l5 -2l-342 -1061q-40 -8 -52 -8q-11 0 -51 8
l-227 684q-60 188 -68 256h-6q-8 -63 -74 -256l-227 -684q-32 -8 -49 -8q-13 0 -53 8z" />
    <glyph glyph-name="x" unicode="x" horiz-adv-x="1001" 
d="M59 8l377 541l-364 520q18 8 57 8q18 0 33.5 -2t21.5 -4l6 -2l316 -446l311 446q14 8 55 8q17 0 31.5 -2t200C0E8DA8E" />
    <glyph glyph-name="y" unicode="y" horiz-adv-x="1069" 
d="M59 1069q21 8 58 8q16 0 30 -2t19 -4l6 -2l311 -764q20 -51 38 -102t26 -76l8 -25h8q25 86 66 203l272 764q14 8 53 8q16 0 29.5 -2t18.5 -4l6 -2l-463 -1300q-51 -146 -110.5 -213.5t-168.5 -67.5q-26 0 -51 3.5t-37 6.5l-12 4q-8 24 -8 41q0 30 10 45q37 -10 88 -10
q64 0 107 46t86 169l75 209q-26 4 -37 10z" />
    <glyph glyph-name="z" unicode="z" horiz-adv-x="929" 
d="M86 47q0 19 8 43l608 897h-561q-8 14 -8 45q0 15 2 26t4 15l2 4h674q8 -24 8 -43q0 -23 -8 -47l-606 -897h612q8 -12 8 -45q0 -14 -2 -25t-4 -16l-2 -4h-727q-8 24 -8 47z" />
    <glyph glyph-name="braceleft" unicode="{" horiz-adv-x="692" 
d="M72 684q0 23 8 47h67q43 0 64.5 29t21.5 74v552q0 126 70 199.5t203 73.5h98q8 -24 8 -45t-8 -45h-80q-188 0 -188 -187v-512q0 -71 -15 -114t-53 -70q38 -27 53 -71t15 -115v-512q0 -187 188 -187h80q8 -24 8 -45t-8 -45h-98q-133 0 -203 73.5t-70 199.5v553
q0 45 -21.5 73.5t-64.5 28.5h-67q-8 24 -8 45z" />
    <glyph glyph-name="bar" unicode="|" horiz-adv-x="512" 
d="M205 -395v2005q14 8 51 8q16 0 29 -2t17 -4l5 -2v-2005q-14 -8 -51 -8q-16 0 -29 2t-17 4z" />
    <glyph glyph-name="braceright" unicode="}" horiz-adv-x="690" 
d="M80 -244q0 27 6 45h80q98 0 143 47.5t45 139.5v512q0 71 15 114t53 70q-38 27 -53 71t-15 115v512q0 92 -45 139.5t-143 47.5h-80q0 1 -3 14.5t-3 28.5q0 29 6 47h98q133 0 203 -73.5t70 -199.5v-552q0 -45 21.5 -74t64.5 -29h67q8 -24 8 -45q0 -23 -8 -47h-67
q-43 0 -64.5 -28.5t-21.5 -73.5v-553q0 -126 -70 -199.5t-203 -73.5h-98q-6 18 -6 45z" />
    <glyph glyph-name="asciitilde" unicode="~" horiz-adv-x="1097" 
d="M170 606q3 4 8 11.5t25 26t43 32.5t62 25.5t83 11.5q45 0 89 -16.5t74 -36t73 -36t86 -16.5q44 0 82.5 18.5t55.5 37.5l17 18q50 -9 62 -57q-3 -4 -8 -11.5t-24.5 -26.5t-43 -33t-64 -26t-85.5 -12t-89 16.5t-74 36t-73 36t-86 16.5q-27 0 -53.5 -7.5t-44 -18.5
t-31.5 -22t-20 -19l-7 -7q-47 9 -57 59z" />
    <glyph glyph-name="uni00A0" unicode="&#xa0;" horiz-adv-x="505" 
 />
    <glyph glyph-name="cent" unicode="&#xa2;" horiz-adv-x="952" 
d="M135 539q0 257 98.5 399.5t284.5 157.5l-10 188q20 8 51 8q33 0 49 -8l-10 -186q64 -3 117.5 -15t75.5 -23l22 -11q0 -53 -35 -78q-73 37 -192 37q-176 0 -260 -117t-84 -352q0 -236 86.5 -350.5t265.5 -114.5q56 0 107 11t75 21l23 11q34 -20 37 -78q-10 -6 -28.5 -15
t-80 -25t-129.5 -19l10 -187q-25 -10 -51 -10q-29 0 -49 10l10 189q-186 15 -284.5 157.5t-98.5 399.5z" />
    <glyph glyph-name="sterling" unicode="&#xa3;" horiz-adv-x="1058" 
d="M123 690q0 31 8 43h143q-23 68 -35 106.5t-24 99t-12 112.5q0 185 111 274.5t304 89.5q74 0 150 -13t109.5 -23.5t54.5 -18.5q4 -59 -35 -82q-10 5 -43 14.5t-97.5 20t-127.5 10.5q-153 0 -233.5 -70t-80.5 -209q0 -21 2 -41.5t7.5 -46.5l8.5 -41t13 -47l13 -41.5
t16.5 -48.5l15.5 -45h400q10 -15 10 -41q0 -32 -10 -45h-373q21 -74 27.5 -135t-1.5 -132.5t-47.5 -142.5t-109.5 -139h641q10 -10 10 -49t-10 -49h-776v98q80 71 124.5 141.5t53.5 142t1.5 130t-30.5 135.5h-170q-8 24 -8 43z" />
    <glyph glyph-name="yen" unicode="&#xa5;" horiz-adv-x="1243" 
d="M78 1391q18 10 55 10q18 0 33 -2t21 -4l6 -2l421 -713l447 713q18 8 55 8q16 0 30 -2t20 -4l5 -2l-475 -756h316q8 -24 8 -39q0 -23 -8 -39h-350v-162h350q8 -16 8 -39q0 -15 -8 -39h-350v-311q-13 -8 -50 -8q-16 0 -28.5 2t-16.5 4l-4 2v311h-350q-8 24 -8 39t8 39h350
v162h-350q-8 24 -8 39t8 39h315z" />
    <glyph glyph-name="section" unicode="&#xa7;" horiz-adv-x="987" 
d="M143 705q0 145 160 243q-139 73 -139 211q0 125 89.5 189.5t252.5 64.5q161 0 276 -43q5 -21 -2 -43.5t-22 -32.5q-140 35 -230 35q-141 0 -202.5 -43.5t-61.5 -124.5q0 -49 32 -84.5t82.5 -57.5t112 -40.5t123 -40.5t112 -50t82.5 -76t32 -112q0 -137 -146 -235
q74 -36 116 -87t42 -130q0 -268 -387 -268q-81 0 -159.5 12t-117.5 24l-38 13q-7 56 24 80q156 -39 272 -39q155 0 228.5 42t73.5 136q0 48 -33.5 82.5t-86.5 55t-117.5 38.5t-129.5 39.5t-118 50t-86.5 77t-33.5 114.5zM244 719q0 -36 16 -65t38.5 -47t63.5 -35t73 -26
l85.5 -23.5t83.5 -24.5q135 83 135 190q0 34 -16 61.5t-39 45.5t-62 35t-71.5 27.5t-83 25.5t-80.5 26q-143 -84 -143 -190z" />
    <glyph glyph-name="copyright" unicode="&#xa9;" horiz-adv-x="1652" 
d="M135 696q0 188 92.5 347t251.5 251t348 92q141 0 269 -54.5t220.5 -146.5t147 -220t54.5 -269t-54.5 -269t-147 -221t-220.5 -147.5t-269 -54.5q-188 0 -347.5 92.5t-252 252t-92.5 347.5zM213 696q0 -166 82.5 -307.5t224 -224t307.5 -82.5t307.5 82.5t223.5 224
t82 307.5q0 124 -48.5 238t-130.5 196t-196 130.5t-238 48.5q-166 0 -307.5 -82t-224 -223.5t-82.5 -307.5zM483 711q0 201 87.5 304t260.5 103q60 0 112 -11t73 -23l22 -11q0 -39 -30 -63q-78 37 -166 37q-140 0 -205.5 -78.5t-65.5 -257.5q0 -334 271 -334q43 0 87 8.5
t67 16.5l22 8q27 -14 31 -62q-9 -5 -25.5 -13t-73 -21t-119.5 -13q-172 0 -260 106t-88 304z" />
    <glyph glyph-name="uni00AD" unicode="&#xad;" horiz-adv-x="729" 
d="M164 594q0 13 2 23.5t4 14.5l2 5h385q8 -14 8 -43q0 -13 -2 -23.5t-4 -14.5l-2 -5h-385q-8 14 -8 43z" />
    <glyph glyph-name="registered" unicode="&#xae;" 
d="M141 965q0 177 124.5 301.5t301.5 124.5t301.5 -124.5t124.5 -301.5t-124.5 -301.5t-301.5 -124.5t-301.5 124.5t-124.5 301.5zM193 965q0 -157 109.5 -267t264.5 -110q157 0 266 110t109 267t-109 266.5t-266 109.5q-155 0 -264.5 -109.5t-109.5 -266.5zM422 745v461
h178q73 0 110.5 -35t37.5 -100q0 -97 -91 -125l119 -198q-10 -9 -28 -9q-8 0 -15 1.5t-11 3.5l-3 1l-117 195h-129v-195q-10 -6 -24 -6q-7 0 -14 1.5t-10 3.5zM473 985h127q51 0 72.5 21.5t21.5 64.5q0 46 -21.5 68t-72.5 22h-127v-176z" />
    <glyph glyph-name="degree" unicode="&#xb0;" horiz-adv-x="737" 
d="M121 1264q0 99 67.5 173t184.5 74q116 0 179.5 -72t63.5 -169q0 -99 -63.5 -171.5t-179.5 -72.5q-121 0 -102DD5E2A55" />
    <glyph glyph-name="paragraph" unicode="&#xb6;" horiz-adv-x="958" 
d="M74 1194q2 97 64.5 167.5t172.5 70.5h80v-1889q-14 -8 -45 -8q-15 0 -25.5 2t-14.5 4l-3 2v1413q-110 3 -169.5 72.5t-59.5 165.5zM653 -457v1880q12 9 45 9q14 0 24.5 -2t14.5 -4l4 -3v-1880q-12 -8 -43 -8q-15 0 -26 2t-15 4z" />
    <glyph glyph-name="periodcentered" unicode="&#xb7;" horiz-adv-x="450" 
d="M164 528v107q20 8 61 8q18 0 33.5 -2t21.5 -4l7 -2v-107q-21 -8 -62 -8q-18 0 -33.5 2t-21.5 4z" />
    <glyph glyph-name="florin" unicode="&#x192;" horiz-adv-x="888" 
d="M-78 -250q-3 48 27 72q69 -23 143 -23q87 0 136.5 50t60.5 171l82 828h-195q-8 14 -8 43q0 11 2 21t4 14l2 4h203l16 170q17 167 84 241t203 74q47 0 91.5 -8.5t65.5 -17.5l21 -9q0 -42 -26 -71q-70 22 -148 22q-88 0 -133 -51t-57 -176l-17 -174h203q8 -14 8 -41
q0 -12 -2 -22t-4 -15l-2 -4h-211l-82 -823q-17 -163 -86.5 -238.5t-204.5 -75.5q-44 0 -88 9.5t-66 19.5z" />
    <glyph glyph-name="uni0401" unicode="&#x401;" horiz-adv-x="1138" 
d="M209 0v1475h801q8 -24 8 -45q0 -22 -8 -50h-695v-585h592q8 -28 8 -45q0 -20 -8 -48h-592v-608h715q8 -28 8 -45q0 -21 -8 -49h-821zM412 1647v108q20 8 61 8q18 0 33.5 -2t21.5 -4l7 -2v-108q-21 -9 -62 -9q-18 0 -33.5 2t-21.5 4zM717 1647v108q20 8 61 8q18 0 33.5 -2
t22.5 -4l6 -2v-108q-21 -9 -62 -9q-18 0 -33.5 2t-21.5 4z" />
    <glyph glyph-name="uni0410" unicode="&#x410;" horiz-adv-x="1314" 
d="M41 8l563 1458q18 9 53 9q16 0 29.5 -2.5t19.5 -4.5l5 -2l563 -1458q-18 -8 -57 -8q-16 0 -30 2t-20 4l-6 2l-162 418h-690l-164 -418q-16 -8 -55 -8q-16 0 -28 2t-16 4zM342 520h623l-275 711q-11 29 -19.5 55.5t-10.5 38.5l-3 12h-4q-9 -43 -32 -106z" />
    <glyph glyph-name="uni0411" unicode="&#x411;" horiz-adv-x="1251" 
d="M209 0v1475h784q11 -19 11 -50q0 -13 -3 -24.5t-5 -16.5l-3 -6h-678v-549h416q190 0 302 -111.5t112 -299.5q0 -190 -112 -304t-302 -114h-522zM315 90h400q152 0 235.5 88.5t83.5 237.5q0 151 -83 237t-236 86h-400v-649z" />
    <glyph glyph-name="uni0412" unicode="&#x412;" horiz-adv-x="1282" 
d="M209 0v1475h496q107 0 186 -31t124 -86t66 -122.5t21 -148.5q0 -50 -9.5 -95t-21.5 -75.5t-33 -59.5t-34.5 -43.5t-37.5 -31.5t-29.5 -20l-21.5 -12l15 -6q15 -5 26 -11l31.5 -17t36.5 -25.5l36 -34t34.5 -45.5t27.5 -57.5t20 -72t7 -86.5q0 -185 -107.5 -290
t-328.5 -105h-504zM315 92h385q180 0 258 76.5t78 226.5q0 157 -82 231t-256 74h-383v-608zM315 791h369q307 0 307 296q0 143 -71.5 219t-239.5 76h-365v-591z" />
    <glyph glyph-name="uni0413" unicode="&#x413;" horiz-adv-x="1015" 
d="M209 8v1467h745q9 -19 9 -48q0 -13 -2.5 -25t-4.5 -18l-2 -6h-639v-1370q-18 -8 -53 -8q-16 0 -29 2t-19 4z" />
    <glyph glyph-name="uni0414" unicode="&#x414;" horiz-adv-x="1384" 
d="M41 94h125q69 87 107.5 248t58.5 410l55 723h741v-1381h160v-377q-24 -8 -49 -8q-19 0 -51 8v283h-1047v-283q-32 -8 -51 -8q-25 0 -49 8v377zM287 94h735v1292h-541l-47 -647q-32 -468 -147 -645z" />
    <glyph glyph-name="uni0415" unicode="&#x415;" horiz-adv-x="1138" 
d="M209 0v1475h801q8 -24 8 -45q0 -31 -8 -50h-695v-585h592q8 -24 8 -45q0 -29 -8 -48h-592v-608h715q8 -28 8 -45q0 -30 -8 -49h-821z" />
    <glyph glyph-name="uni0416" unicode="&#x416;" horiz-adv-x="1931" 
d="M47 8l496 770l-437 688q36 9 58 9q30 0 57 -9l416 -655h276v655q19 9 54 9q16 0 29 -2.5t18 -4.5l6 -2v-655h272l418 655q27 9 57 9q29 0 56 -9l-437 -684l500 -774q-22 -8 -63 -8q-18 0 -35 2t-25 4l-8 2l-459 711h-276v-711q-16 -8 -53 -8q-16 0 -29.5 2t-19.5 4l-5 2
v711h-286l-457 -711q-23 -8 -64 -8q-18 0 -33 2t-21 4z" />
    <glyph glyph-name="uni0417" unicode="&#x417;" horiz-adv-x="1118" 
d="M90 41q-2 24 7 48t26 36q162 -49 326 -49q219 0 320 82t101 223q0 80 -25 139.5t-64 94.5t-95.5 56.5t-111 28.5t-119.5 7h-111q-10 22 -10 48t10 46h111q372 0 372 307q0 137 -91 214t-265 77q-82 0 -162 -13.5t-119 -26.5l-40 -13q-44 25 -37 81q17 8 48 19t127.5 30
t192.5 19q224 0 340.5 -102t116.5 -279q0 -73 -19 -134t-45.5 -98t-61 -64.5t-59 -39.5t-46.5 -18v-4q21 -5 44 -14.5t56 -27.5t62 -47.5t55 -68.5t41.5 -96.5t15.5 -124.5q0 -68 -17 -125.5t-55.5 -108.5t-97.5 -86.5t-148 -56t-202 -20.5q-102 0 -194.5 15t-134.5 31z" />
    <glyph glyph-name="uni0418" unicode="&#x418;" horiz-adv-x="1404" 
d="M209 8v1458q18 9 53 9q16 0 30 -2.5t20 -4.5l5 -2v-1003q0 -84 -2.5 -164.5t-4.5 -118.5l-3 -39h4q7 24 43.5 99t83.5 155l635 1071q19 9 62 9q19 0 34.5 -2.5t20.5 -4.5l6 -2v-1458q-16 -8 -53 -8q-17 0 -30.5 2t-18.5 4l-4 2v991q0 111 2.5 193.5t5.5 109.5l2 27h-6
q-27 -75 -119 -237l-639 -1084l-4 -1q-3 -1 -8.5 -2t-13 -2t-18.5 -2t-22 -1q-19 0 -34.5 2t-21.5 4z" />
    <glyph glyph-name="uni0419" unicode="&#x419;" horiz-adv-x="1404" 
d="M209 8v1458q18 9 53 9q16 0 30 -2.5t20 -4.5l5 -2v-1003q0 -84 -2.5 -164.5t-4.5 -118.5l-3 -39h4q7 24 43.5 99t83.5 155l635 1071q19 9 62 9q19 0 34.5 -2.5t20.5 -4.5l6 -2v-1458q-16 -8 -53 -8q-17 0 -30.5 2t-18.5 4l-4 2v991q0 111 2.5 193.5t5.5 109.5l2 27h-6
q-27 -75 -119 -237l-639 -1084l-4 -1q-3 -1 -8.5 -2t-13 -2t-18.5 -2t-22 -1q-19 0 -34.5 2t-21.5 4zM422 1798q16 45 53 60q5 -3 13 -8.5t35 -19.5t54.5 -24.5t69 -19t80.5 -8.5q62 0 124.5 20t94.5 40l31 20q38 -14 51 -60q-5 -5 -13.5 -12.5t-38 -26.5t-62 -34t-83.5 -27
t-104 -12t-103.5 11.5t-85.5 28t-62.5 33t-40.5 27.5z" />
    <glyph glyph-name="uni041A" unicode="&#x41a;" horiz-adv-x="1249" 
d="M209 8v1458q18 9 55 9q16 0 28.5 -2.5t17.5 -4.5l5 -2v-653h256l459 653q27 9 57 9q22 0 58 -9l-483 -690l542 -768q-20 -8 -61 -8q-18 0 -34.5 2t-24.5 4l-7 2l-504 711h-258v-711q-16 -8 -53 -8q-16 0 -29 2t-19 4z" />
    <glyph glyph-name="uni041B" unicode="&#x41b;" horiz-adv-x="1345" 
d="M39 41q0 19 8 43q6 0 22.5 -1t26.5 -1q22 1 38 4.5t40 19.5t42.5 44t40.5 82.5t39 129t33 189t27 258.5l52 666h729v-1467q-19 -8 -54 -8q-43 0 -53 8v1374h-528l-43 -577q-12 -157 -30.5 -283t-40 -210t-49.5 -145.5t-53 -95t-57.5 -53t-57.5 -25t-56 -5.5q-32 0 -68 12
q-8 24 -8 41z" />
    <glyph glyph-name="uni041C" unicode="&#x41c;" horiz-adv-x="1724" 
d="M209 8v1458q26 9 67 9q17 0 34 -2.5t26 -4.5l8 -2l422 -761q55 -98 82 -166h4q18 44 66 129l234 408l222 390q45 9 70 9q21 0 39 -2.5t25 -4.5l8 -2v-1458q-17 -8 -54 -8q-16 0 -29.5 2t-18.5 4l-5 2v1039q0 221 10 303h-6q-13 -55 -104 -215l-420 -729q-16 -9 -41 -9
q-11 0 -21.5 2.5t-14.5 4.5l-5 2l-212 381.5l-192 345.5q-38 68 -67.5 132t-34.5 85h-6q14 -68 14 -312v-1030q-14 -8 -49 -8q-16 0 -28.5 2t-17.5 4z" />
    <glyph glyph-name="uni041D" unicode="&#x41d;" horiz-adv-x="1384" 
d="M209 8v1458q18 9 53 9q16 0 29 -2.5t19 -4.5l5 -2v-661h754v661q18 9 53 9q16 0 29.5 -2.5t18.5 -4.5l6 -20BDAE8FA30" />
    <glyph glyph-name="uni041E" unicode="&#x41e;" horiz-adv-x="1392" 
d="M143 737q0 385 144 571.5t409 186.5t409 -186t144 -572q0 -387 -143.5 -572t-409.5 -185t-409.5 185t-143.5 572zM258 737q0 -179 30.5 -308.5t88.5 -207t137 -113.5t182 -36q212 0 325.5 157t113.5 508q0 180 -30.5 310t-89 207t-137.5 113t-182 36t-182 -36t-137 -113
t-88.5 -207t-30.5 -310z" />
    <glyph glyph-name="uni041F" unicode="&#x41f;" horiz-adv-x="1359" 
d="M209 8v1467h942v-1467q-18 -8 -51 -8q-17 0 -31 2t-19 4l-6 2v1370h-727v-1370q-20 -8 -55 -8q-16 0 -29 2t-19 4z" />
    <glyph glyph-name="uni0420" unicode="&#x420;" horiz-adv-x="1226" 
d="M209 8v1467h506q191 0 300 -118t109 -313q0 -193 -109 -310.5t-300 -117.5h-400v-608q-16 -8 -51 -8q-17 0 -31 2t-19 4zM315 713h396q143 0 222 87.5t79 241.5q0 159 -78.5 248.5t-222.5 89.5h-396v-667z" />
    <glyph glyph-name="uni0421" unicode="&#x421;" horiz-adv-x="1142" 
d="M143 737q0 758 553 758q99 0 184.5 -17t121.5 -34l36 -17q0 -47 -34 -81q-13 6 -37.5 15t-101.5 24.5t-154 15.5q-85 0 -152 -19.5t-125 -67t-96.5 -123t-60 -190.5t-21.5 -266t21.5 -265.5t59.5 -189t96 -120.5t125 -65t153 -19q84 0 163 14t116 28l36 13q32 -28 35 -84
q-5 -3 -14.5 -7.5t-44 -16t-73.5 -20.5t-102 -16t-131 -7q-277 0 -415 187.5t-138 569.5z" />
    <glyph glyph-name="uni0422" unicode="&#x422;" horiz-adv-x="1091" 
d="M63 1427q0 13 2.5 25t4.5 18l2 5h948q8 -17 8 -48q0 -13 -2 -24.5t-4 -16.5l-2 -6h-416v-1372q-16 -8 -53 -8q-17 0 -30.5 2t-18.5 4l-4 2v1372h-426q-9 18 -9 47z" />
    <glyph glyph-name="uni0423" unicode="&#x423;" horiz-adv-x="1243" 
d="M49 1466q19 9 60 9q18 0 33 -2.5t20 -4.5l6 -2l453 -942l29 -70t18 -44h4q3 7 17.5 48t27.5 72l366 936q17 9 54 9q16 0 30 -2.5t19 -4.5l6 -2l-418 -1071q-49 -126 -97 -207t-98.5 -121t-96.5 -53.5t-109 -13.5q-30 0 -58 3.5t-41 6.5l-12 4q-8 16 -8 47t8 43
q47 -8 84 -8q38 0 63 3t57 15t56.5 35t52.5 64t54 100h-27z" />
    <glyph glyph-name="uni0424" unicode="&#x424;" horiz-adv-x="1622" 
d="M109 770q0 128 33 226t90 160.5t140.5 101.5t176.5 55t207 16v158q18 8 53 8q16 0 29 -2t18 -4l6 -2v-158q114 0 207.5 -16t177.5 -55t141.5 -101.5t91 -160.5t33.5 -226t-33.5 -226t-91 -161t-141.5 -102.5t-177.5 -55.5t-207.5 -16v-201q-20 -8 -53 -8q-16 0 -29.5 2
t-18.5 4l-5 2v201q-114 0 -207 16t-176.5 55.5t-140.5 102.5t-90 161t-33 226zM219 770q0 -111 26.5 -194t72.5 -135t115.5 -84.5t147 -45t175.5 -12.5v942q-98 0 -175.5 -13t-147 -45.5t-115.5 -84.5t-72.5 -135t-26.5 -193zM862 299q99 0 177 13t147.5 45.5t115.5 84.5
t72.5 135t26.5 193q0 111 -26.5 193.5t-72.5 135t-115.5 85t-147.5 45t-177 12.5v-942z" />
    <glyph glyph-name="uni0425" unicode="&#x425;" horiz-adv-x="1226" 
d="M61 8l471 750l-450 708q20 9 65 9q17 0 32.5 -2.5t22.5 -4.5l7 -2l401 -630l410 630q36 9 61 9q26 0 62 -9l-461 -704l483 -752q-22 -10 -65 -10q-19 0 -35 2t-23 4l-6 2l-432 672l-420 -672q-32 -8 -61 -8q-30 0 -62 8z" />
    <glyph glyph-name="uni0426" unicode="&#x426;" horiz-adv-x="1423" 
d="M209 0v1466q16 9 53 9q16 0 29 -2.5t19 -4.5l5 -2v-1370h746v1370q16 9 53 9q16 0 29 -2.5t19 -4.5l5 -2v-1370h158v-379q-19 -8 -51 -8q-30 0 -49 8v283h-1016z" />
    <glyph glyph-name="uni0427" unicode="&#x427;" horiz-adv-x="1292" 
d="M127 1083v383q16 9 51 9q16 0 30 -2.5t20 -4.5l5 -2v-383q0 -208 85 -290t280 -82q44 0 87.5 4t79 10.5t67.5 14.5t58 16.5l43.5 14.5t30.5 11l13 6v678q18 9 53 9q16 0 29 -2.5t19 -4.5l5 -2v-1458q-18 -8 -53 -8q-16 0 -29.5 2t-18.5 4l-5 2v680l-9 -4l-21 -7l-30 -10
t-39.5 -11.5l-47 -12t-55 -11.5t-61 -9t-67.5 -6.5t-72 -2.5q-84 0 -150.5 13.5t-123.5 46.5t-94.5 86t-58.5 134t-21 189z" />
    <glyph glyph-name="uni0428" unicode="&#x428;" horiz-adv-x="1955" 
d="M209 0v1466q16 9 53 9q16 0 29.5 -2.5t18.5 -4.5l5 -2v-1370h609v1370q12 9 55 9q17 0 30.5 -2.5t18.5 -4.5l4 -2v-1370h608v1370q15 9 54 9q16 0 29.5 -2.5t18.5 -4.5l5 -2v-1466h-1538z" />
    <glyph glyph-name="uni0429" unicode="&#x429;" horiz-adv-x="2002" 
d="M209 0v1466q16 9 53 9q16 0 29 -2.5t19 -4.5l5 -2v-1370h609v1370q18 9 55 9q16 0 29 -2.5t18 -4.5l6 -2v-1370h608v1370q17 9 54 9q16 0 29 -2.5t19 -4.5l5 -2v-1370h158v-379q-19 -8 -50 -8q-30 0 -51 8v283h-1595z" />
    <glyph glyph-name="uni042A" unicode="&#x42a;" horiz-adv-x="1419" 
d="M55 1425q0 14 2 26.5t4 18.5l2 5h422v-644h414q192 0 305 -111.5t113 -299.5q0 -190 -113.5 -305t-304.5 -115h-520v1378h-316q-8 18 -8 47zM485 94h402q152 0 234.5 87t82.5 237q0 149 -82.5 234t-234.5 85h-402v-643z" />
    <glyph glyph-name="uni042B" unicode="&#x42b;" horiz-adv-x="1759" 
d="M209 0v1466q16 9 55 9q16 0 28.5 -2.5t17.5 -4.5l5 -2v-635h414q192 0 305 -111.5t113 -299.5q0 -190 -113.5 -305t-304.5 -115h-520zM315 94h402q152 0 234.5 87t82.5 237q0 149 -82.5 234t-234.5 85h-402v-643zM1444 8v1458q16 9 53 9q16 0 29.5 -2.5t18.5 -4.5l5 -2
v-1458q-16 -8 -53 -8q-16 0 -29.5 2t-18.5 4z" />
    <glyph glyph-name="uni042C" unicode="&#x42c;" horiz-adv-x="1249" 
d="M209 0v1466q16 9 55 9q16 0 28.5 -2.5t17.5 -4.5l5 -2v-635h414q192 0 305 -111.5t113 -299.5q0 -190 -113.5 -305t-304.5 -115h-520zM315 94h402q152 0 234.5 87t82.5 237q0 149 -82.5 234t-234.5 85h-402v-643z" />
    <glyph glyph-name="uni042D" unicode="&#x42d;" horiz-adv-x="1189" 
d="M88 47q3 53 35 82q15 -6 43 -15t116 -23.5t177 -14.5q109 0 190.5 30t146.5 99.5t100 194t38 302.5h-584q-8 19 -8 48q0 13 2 24.5t4 17.5l2 5h582q-4 136 -29 240t-65.5 172.5t-99.5 112t-127 61.5t-152 18q-82 0 -160.5 -13.5t-116.5 -26.5l-37 -13q-34 30 -34 79
q14 8 42 19t122 30t198 19q286 0 430 -190.5t144 -567.5q0 -757 -574 -757q-71 0 -136.5 7t-108.5 16.5t-76.5 19.5t-48.5 17z" />
    <glyph glyph-name="uni042E" unicode="&#x42e;" horiz-adv-x="1941" 
d="M209 8v1458q18 9 53 9q16 0 30 -2.5t20 -4.5l5 -2v-682h377q17 711 551 711q267 0 410 -185.5t143 -572.5t-143 -572t-410 -185q-534 0 -551 710h-377v-682q-20 -8 -53 -8q-16 0 -30 2t-20 4zM807 737q0 -179 30 -308.5t88 -207t137 -113.5t183 -36q214 0 326 156.5
t112 508.5q0 180 -29.5 309.5t-87.5 207t-137 113.5t-184 36q-104 0 -183 -36t-137 -113t-88 -207t-30 -310z" />
    <glyph glyph-name="uni042F" unicode="&#x42f;" horiz-adv-x="1271" 
d="M106 8l345 641q-144 31 -224 138.5t-80 269.5q0 189 110 303.5t300 114.5h506v-1467q-16 -8 -55 -8q-16 0 -29.5 2t-18.5 4l-6 2v629h-387l-338 -629q-24 -8 -63 -8q-17 0 -32 2t-22 4zM260 1057q0 -153 80.5 -238.5t220.5 -85.5h393v647h-393q-140 0 -220.5 -85.5
t-80.5 -237.5z" />
    <glyph glyph-name="uni0430" unicode="&#x430;" horiz-adv-x="1048" 
d="M102 297q0 153 95 234t286 81q154 0 295 -18v139q0 146 -64.5 210.5t-201.5 64.5q-70 0 -144 -13.5t-112 -26.5l-39 -14q-18 12 -27 33q-11 27 -6 47q18 7 49 17.5t120.5 28.5t170.5 18q108 0 179 -26.5t109.5 -84t53.5 -131.5t15 -184v-664q-12 -8 -41 -8q-12 0 -23 2
t-15 4l-5 2l-17 172q-46 -97 -139 -148.5t-221 -51.5q-144 0 -231 84t-87 233zM211 297q0 -115 62 -172t173 -57q147 0 239.5 98t92.5 258v90q-202 18 -278 18q-148 0 -218.5 -57.5t-70.5 -177.5z" />
    <glyph glyph-name="uni0431" unicode="&#x431;" horiz-adv-x="1165" 
d="M156 719q0 114 8.5 204t29.5 160.5t45.5 122t69.5 91.5t86 66t111 48.5t130 36t155 31.5q58 11 79.5 23t44.5 48q56 -3 76 -37q-17 -59 -53 -85.5t-125 -43.5q-88 -17 -136 -27.5t-112.5 -29t-97.5 -36.5t-75 -47.5t-62 -65t-41.5 -86t-31.5 -113.5t-15 -145h8
q40 99 133 159t240 60q198 0 306.5 -131.5t108.5 -405.5q0 -536 -432 -536q-84 0 -147 16.5t-123 64t-97.5 128t-60 214t-22.5 316.5zM281 516q0 -128 24 -218t70 -139.5t102 -71t129 -21.5q58 0 105.5 13t89.5 44.5t70 82t44.5 129t16.5 181.5q0 128 -24 218.5t-70 140
t-102 71t-130 21.5q-57 0 -103 -12t-88.5 -43.5t-71 -81t-45.5 -129.5t-17 -185z" />
    <glyph glyph-name="uni0432" unicode="&#x432;" horiz-adv-x="1052" 
d="M176 0v1077h418q139 0 218 -72t79 -206q0 -88 -37 -150.5t-104 -93.5q89 -29 135.5 -98.5t46.5 -167.5q0 -140 -83.5 -214.5t-238.5 -74.5h-434zM279 86h317q111 0 169 51.5t58 153.5q0 101 -56.5 157t-170.5 56h-317v-418zM279 588h294q102 0 158.5 54t56.5 151
q0 98 -55.5 148t-159.5 50h-294v-403z" />
    <glyph glyph-name="uni0433" unicode="&#x433;" horiz-adv-x="817" 
d="M176 8v1069h578q8 -16 8 -45q0 -13 -2 -24t-4 -16l-2 -5h-475v-979q-13 -8 -52 -8q-16 0 -29 2t-18 4z" />
    <glyph glyph-name="uni0434" unicode="&#x434;" horiz-adv-x="1159" 
d="M53 86h90q45 55 74.5 166.5t46.5 337.5l39 487h639v-991h129v-340q-24 -8 -45 -8q-19 0 -51 8v254h-825v-254q-24 -8 -50 -8q-23 0 -47 8v340zM260 86h580v903h-449l-31 -407q-25 -346 -100 -496z" />
    <glyph glyph-name="uni0435" unicode="&#x435;" horiz-adv-x="1042" 
d="M125 545q0 280 114.5 416.5t313.5 136.5q181 0 279 -104.5t98 -280.5q0 -56 -6 -108t-12 -75l-5 -24h-676q10 -230 93 -330t251 -100q72 0 136.5 19t93.5 38l29 19q36 -23 43 -80q-5 -4 -13.5 -10t-39.5 -22t-65.5 -28t-91 -22t-116.5 -10q-209 0 -317.5 143.5
t-108.5 421.5zM231 590h582q0 1 1 7.5t2.5 18.5t3 27t2.5 37t1 45q0 59 -15 109t-46.5 90t-84.5 63t-124 23q-145 0 -230 -103.5t-92 -316.5z" />
    <glyph glyph-name="uni0436" unicode="&#x436;" horiz-adv-x="1579" 
d="M49 10l369 559l-320 500q17 8 56 8q17 0 32 -2t21 -4l6 -2l295 -463h231v463q17 8 52 8q15 0 27.5 -2t17.5 -4l6 -2v-463h231l295 463q21 8 62 8q16 0 29 -2t17 -4l5 -2l-318 -500l369 -559q-19 -10 -62 -10q-17 0 -32 2.5t-21 5.5l-6 2l-338 510h-231v-512
q-16 -8 -51 -8q-16 0 -29 2t-18 4l-5 2v512h-231l-338 -510q-22 -10 -61 -10q-19 0 -34 2.5t-21 5.5z" />
    <glyph glyph-name="uni0437" unicode="&#x437;" horiz-adv-x="927" 
d="M84 35q0 50 31 78q11 -5 32.5 -12t91 -19t142.5 -12q167 0 242 56.5t75 168.5q0 104 -77.5 156.5t-221.5 52.5h-116q-11 18 -11 45q0 11 3 22t5 16l3 5h116q129 0 200 46.5t71 158.5q0 109 -66 161t-213 52q-67 0 -129 -10t-90 -20l-29 -9q-32 22 -28 78q11 5 33.5 13.5
t101 22t166.5 13.5q360 0 360 -291q0 -198 -160 -256v-2q92 -30 140.5 -98.5t48.5 -161.5q0 -55 -12 -99.5t-41.5 -84.5t-76 -67t-120 -42.5t-170.5 -15.5q-87 0 -162 14t-107 28z" />
    <glyph glyph-name="uni0438" unicode="&#x438;" horiz-adv-x="1181" 
d="M176 8v1061q16 8 51 8q16 0 29 -2t18 -4l5 -2v-723q0 -52 -1.5 -104.5t-3.5 -78.5l-2 -26h4q32 64 89 150l528 782q16 8 55 8q18 0 32.5 -2t19.5 -4l6 -2v-1061q-19 -8 -52 -8q-15 0 -28 2t-19 4l-6 2v713q0 219 6 219h-6q2 -1 -14 -29.5t-44 -73.5l-57 -89l-497 -740
q-19 -8 -58 -8q-16 0 -30 2t-19 4z" />
    <glyph glyph-name="uni0439" unicode="&#x439;" horiz-adv-x="1181" 
d="M176 8v1061q16 8 51 8q16 0 29 -2t18 -4l5 -2v-723q0 -52 -1.5 -104.5t-3.5 -78.5l-2 -26h4q32 64 89 150l528 782q16 8 55 8q18 0 32.5 -2t19.5 -4l6 -2v-1061q-19 -8 -52 -8q-15 0 -28 2t-19 4l-6 2v713q0 213 6 219h-6q-39 -76 -94 -160l-518 -772q-19 -8 -58 -8
q-16 0 -30 2t-19 4zM315 1401q12 41 50 55q4 -3 10.5 -8.5t29.5 -20t48 -25t63 -19.5t76 -9q61 0 117.5 20.5t82.5 41.5l27 20q40 -11 49 -55q-4 -5 -11 -12.5t-33 -27.5t-55.5 -35t-77 -27.5t-99.5 -12.5t-99 12t-78 29t-55 33.5t-34 28.5z" />
    <glyph glyph-name="uni043A" unicode="&#x43a;" horiz-adv-x="1019" 
d="M176 8v1061q16 8 51 8q16 0 29 -2t18 -4l5 -2v-463h213l319 463q22 8 61 8q16 0 29.5 -1.5t18.5 -3.5l6 -101403D1A9C" />
    <glyph glyph-name="uni043B" unicode="&#x43b;" horiz-adv-x="1128" 
d="M45 35q0 11 2 21.5t4 15.5l2 4l56 -2q70 2 114.5 125t65.5 403l37 475h626v-1069q-18 -8 -51 -8q-16 0 -28.5 2t-17.5 4l-5 2v981h-434l-31 -395q-14 -159 -35 -271.5t-44 -177t-55 -100.5t-61.5 -46.5t-70.5 -10.5q-16 0 -32.5 2.5t-24.5 5.5l-9 2q-8 12 -8 37z" />
    <glyph glyph-name="uni043C" unicode="&#x43c;" horiz-adv-x="1374" 
d="M176 8v1061q20 8 55 8q17 0 31.5 -2t20.5 -4l6 -2l323 -561q25 -44 64 -123h4q38 77 63 123l340 561q23 8 58 8q16 0 30 -2t21 -4l6 -2v-1061q-14 -8 -49 -8q-16 0 -28.5 2t-17.5 4l-5 2v731q0 79 8 195h-4q-34 -76 -78 -152l-317 -522q-13 -6 -31 -6q-8 0 -15.5 1.5
t-11.5 2.5l-4 2l-299 512q-54 96 -78 160h-6q12 -81 12 -193v-731q-16 -8 -49 -8q-15 0 -27 2t-17 4z" />
    <glyph glyph-name="uni043D" unicode="&#x43d;" horiz-adv-x="1146" 
d="M176 8v1061q14 8 51 8q16 0 29 -2t18 -4l5 -2v-469h589v469q17 8 52 8q16 0 29 -2t17 -4l5 -2v-1061q-16 -00AB3C2A8C" />
    <glyph glyph-name="uni043E" unicode="&#x43e;" horiz-adv-x="1105" 
d="M127 539q0 295 108.5 427t317.5 132t317.5 -132t108.5 -427t-108.5 -427t-317.5 -132t-317.5 132t-108.5 427zM233 539q0 -133 22 -226t65 -146.5t99.5 -77t133.5 -23.5t133.5 23.5t99.5 77t64.5 146.5t21.5 226t-21.5 226t-64.5 146.5t-99.5 77t-133.5 23.5
t-133.5 -23.5t-99.5 -77t-65 -146.5t-22 -226z" />
    <glyph glyph-name="uni043F" unicode="&#x43f;" horiz-adv-x="1124" 
d="M176 8v1069h772v-1069q-14 -8 -49 -8q-16 0 -29.5 2t-18.5 4l-5 2v979h-567v-979q-17 -8 -52 -8q-16 0 -28.5 2t-17.5 4z" />
    <glyph glyph-name="uni0440" unicode="&#x440;" 
d="M176 -494v1563q14 8 51 8q16 0 29 -2t18 -4l5 -2v-151q99 180 329 180q95 0 166.5 -29t125 -93t81 -173.5t27.5 -263.5t-27.5 -263.5t-81 -173.5t-125 -93t-166.5 -29q-230 0 -329 180v-654q-15 -8 -52 -8q-16 0 -29 2t-18 4zM279 410q0 -84 32.5 -160t102.5 -128
t164 -52q171 0 246 108.5t75 360.5t-75 360.5t-246 108.5q-70 0 -128 -29t-94 -77t-55.5 -105.5t-21.5 -118.5v-268z" />
    <glyph glyph-name="uni0441" unicode="&#x441;" horiz-adv-x="909" 
d="M125 539q0 273 111 416t319 143q74 0 136 -12t87 -24l25 -13q0 -55 -35 -80q-74 37 -193 37q-177 0 -260.5 -116.5t-83.5 -350.5q0 -235 86.5 -349t266.5 -114q56 0 107 11t74 21l23 11q33 -20 37 -80q-11 -7 -31.5 -16.5t-91 -26t-147.5 -16.5q-208 0 -319 143t-111 416
z" />
    <glyph glyph-name="uni0442" unicode="&#x442;" horiz-adv-x="890" 
d="M55 1032q0 14 3 25t6 15l2 5h761q11 -14 11 -45q0 -14 -3 -25.5t-5 -16.5l-3 -5h-329v-977q-15 -8 -52 -8q-16 0 -29 2t-17 4l-5 2v977h-329q-11 16 -11 47z" />
    <glyph glyph-name="uni0443" unicode="&#x443;" horiz-adv-x="1069" 
d="M59 1069q21 8 58 8q16 0 30 -2t19 -4l6 -2l311 -764q20 -51 38 -102t26 -76l8 -25h8q25 86 66 203l272 764q14 8 53 8q16 0 29.5 -2t18.5 -4l6 -2l-463 -1300q-51 -146 -110.5 -213.5t-168.5 -67.5q-26 0 -51 3.5t-37 6.5l-12 4q-8 24 -8 41q0 30 10 45q37 -10 88 -10
q64 0 107 46t86 169l75 209q-26 4 -37 10z" />
    <glyph glyph-name="uni0444" unicode="&#x444;" horiz-adv-x="1589" 
d="M129 539q0 283 85.5 421t283.5 138q63 0 124 -11t91 -23l30 -11v475q15 8 52 8q16 0 29 -2t18 -4l4 -2v-475q12 5 33 13t85 20.5t128 11.5q199 -3 283.5 -139.5t84.5 -419.5t-85 -421t-283 -138q-68 0 -129.5 12.5t-88.5 25.5l-28 13v-535q-14 -8 -51 -8q-16 0 -29 2
t-18 4l-5 2v535q-10 -6 -29.5 -14.5t-83.5 -22.5t-132 -14q-198 0 -283.5 138t-85.5 421zM236 539q0 -245 63.5 -357t214.5 -112q60 0 118 14t86 28l27 13v838l-11 5q-10 4 -30 11t-46 14t-64.5 12t-79.5 5q-151 0 -214.5 -113t-63.5 -358zM844 125q11 -6 30.5 -15t80 -24.5
t120.5 -15.5q151 0 215 112.5t64 356.5q0 245 -64 358t-215 113q-41 0 -79.5 -5t-64.5 -12t-46 -14l-31 -11l-10 -5v-838z" />
    <glyph glyph-name="uni0445" unicode="&#x445;" horiz-adv-x="1001" 
d="M59 8l377 541l-364 520q18 8 57 8q18 0 33.5 -2t21.5 -4l6 -2l316 -446l311 446q14 8 55 8q17 0 31.5 -2t200C0E8DA8E" />
    <glyph glyph-name="uni0446" unicode="&#x446;" horiz-adv-x="1171" 
d="M176 0v1069q16 8 51 8q17 0 30.5 -2t18.5 -4l5 -2v-979h569v979q16 8 51 8q16 0 29.5 -2t18.5 -4l5 -2v-979h129v-344q-24 -8 -47 -8q-25 0 -49 8v254h-811z" />
    <glyph glyph-name="uni0447" unicode="&#x447;" horiz-adv-x="1064" 
d="M115 743v326q16 8 51 8q16 0 28.5 -2t17.5 -4l5 -2v-328q0 -123 65 -180t210 -57q170 0 294 78v487q15 8 52 8q16 0 29 -2t17 -4l5 -2v-1061q-14 -8 -51 -8q-16 0 -29 2t-18 4l-5 2v479q-122 -71 -307 -71q-364 0 -364 327z" />
    <glyph glyph-name="uni0448" unicode="&#x448;" horiz-adv-x="1617" 
d="M176 0v1069q14 8 51 8q16 0 29 -2t18 -4l5 -2v-979h477v979q14 8 51 8q16 0 29.5 -2t18.5 -4l5 -2v-979h479v979q15 8 52 8q16 0 29 -2t18 -4l4 -2v-1069h-1266z" />
    <glyph glyph-name="uni0449" unicode="&#x449;" horiz-adv-x="1658" 
d="M176 0v1069q14 8 51 8q16 0 29 -2t18 -4l5 -2v-979h477v979q14 8 51 8q16 0 29.5 -2t18.5 -4l5 -2v-979h479v979q15 8 52 8q16 0 29 -2t18 -4l4 -2v-979h129v-344q-24 -8 -47 -8q-25 0 -49 8v254h-1299z" />
    <glyph glyph-name="uni044A" unicode="&#x44a;" horiz-adv-x="1165" 
d="M57 1032q0 12 11 45h346v-463h346q145 0 226 -83.5t81 -223.5t-81 -223.5t-226 -83.5h-449v985h-243q-11 33 -11 47zM414 86h329q109 0 163.5 56.5t54.5 162.5t-55 164.5t-163 58.5h-329v-442z" />
    <glyph glyph-name="uni044B" unicode="&#x44b;" horiz-adv-x="1458" 
d="M176 0v1069q32 8 51 8q28 0 52 -8v-455h346q145 0 226 -83.5t81 -223.5t-81 -223.5t-226 -83.5h-449zM279 86h329q109 0 163 56.5t54 162.5q0 107 -54.5 165t-162.5 58h-329v-442zM1178 8v1061q32 8 53 8q19 0 51 -8v-1061q-32 -8 -53 -8q-19 0 -51 8z" />
    <glyph glyph-name="uni044C" unicode="&#x44c;" horiz-adv-x="1030" 
d="M176 0v1069q32 8 51 8q28 0 52 -8v-455h346q145 0 226 -83.5t81 -223.5t-81 -223.5t-226 -83.5h-449zM279 86h329q109 0 163 56.5t54 162.5q0 107 -54.5 165t-162.5 58h-329v-442z" />
    <glyph glyph-name="uni044D" unicode="&#x44d;" horiz-adv-x="927" 
d="M86 39q3 50 35 76q94 -43 217 -43q173 0 261.5 106.5t94.5 323.5h-436q-8 24 -8 43t8 43h434q-15 422 -346 422q-54 0 -105 -8.5t-75 -17.5l-25 -9q-30 27 -30 74q10 5 29.5 13.5t86 22t140.5 13.5q210 0 323 -143.5t113 -415.5t-113.5 -415.5t-322.5 -143.5
q-78 0 -148.5 15t-101.5 29z" />
    <glyph glyph-name="uni044E" unicode="&#x44e;" horiz-adv-x="1595" 
d="M176 8v1061q32 8 51 8q28 0 52 -8v-494h323q7 274 117.5 398.5t314.5 124.5q104 0 183 -30.5t136 -96t86 -174t29 -258.5q0 -294 -111.5 -426.5t-322.5 -132.5q-202 0 -312 119.5t-120 385.5h-323v-477q-24 -8 -52 -8q-19 0 -51 8zM709 539q0 -133 22.5 -226t66 -146.5
t101 -77t135.5 -23.5t135.5 23.5t101.5 77t66.5 146.5t22.5 226t-22.5 226t-66.5 146.5t-101.5 77t-135.5 23.5t-135.5 -23.5t-101 -77t-66 -146.5t-22.5 -226z" />
    <glyph glyph-name="uni044F" unicode="&#x44f;" horiz-adv-x="1062" 
d="M94 8l254 455q-102 30 -155.5 108t-53.5 189q0 144 87.5 230.5t246.5 86.5h414v-1069q-32 -8 -51 -8q-28 0 -52 8v438h-331l-238 -438q-32 -8 -65 -8q-24 0 -56 8zM246 760q0 -105 61 -166.5t182 -61.5h295v459h-295q-122 0 -182.5 -60t-60.5 -171z" />
    <glyph glyph-name="uni0451" unicode="&#x451;" horiz-adv-x="1042" 
d="M125 545q0 280 114.5 416.5t313.5 136.5q181 0 279 -104.5t98 -280.5q0 -56 -6 -108t-12 -75l-5 -24h-676q10 -230 93 -331t251 -101q72 0 136.5 19t93.5 38l29 19q36 -25 43 -78q-5 -4 -13.5 -10t-39.5 -22t-65.5 -28t-91 -22t-116.5 -10q-209 0 -317.5 143.5
t-108.5 421.5zM231 590h582q0 1 1 7.5t2.5 18.5t3 27t2.5 37t1 45q0 59 -15 109t-46.5 90t-84.5 63t-124 23q-145 0 -230 -103.5t-92 -316.5zM336 1323v109q20 8 61 8q18 0 33.5 -2t21.5 -4l7 -2v-109q-21 -8 -62 -8q-18 0 -33.5 2t-21.5 4zM641 1323v109q20 8 61 8
q18 0 33.5 -2t22.5 -4l6 -2v-109q-21 -8 -62 -8q-18 0 -33.5 2t-21.5 4z" />
    <glyph glyph-name="uni2000" unicode="&#x2000;" horiz-adv-x="929" 
 />
    <glyph glyph-name="uni2001" unicode="&#x2001;" horiz-adv-x="1858" 
 />
    <glyph glyph-name="uni2002" unicode="&#x2002;" horiz-adv-x="929" 
 />
    <glyph glyph-name="uni2003" unicode="&#x2003;" horiz-adv-x="1858" 
 />
    <glyph glyph-name="uni2004" unicode="&#x2004;" horiz-adv-x="619" 
 />
    <glyph glyph-name="uni2005" unicode="&#x2005;" horiz-adv-x="464" 
 />
    <glyph glyph-name="uni2006" unicode="&#x2006;" horiz-adv-x="309" 
 />
    <glyph glyph-name="uni2007" unicode="&#x2007;" horiz-adv-x="309" 
 />
    <glyph glyph-name="uni2008" unicode="&#x2008;" horiz-adv-x="232" 
 />
    <glyph glyph-name="uni2009" unicode="&#x2009;" horiz-adv-x="371" 
 />
    <glyph glyph-name="uni200A" unicode="&#x200a;" horiz-adv-x="103" 
 />
    <glyph glyph-name="uni2010" unicode="&#x2010;" horiz-adv-x="729" 
d="M164 594q0 13 2 23.5t4 14.5l2 5h385q8 -14 8 -43q0 -13 -2 -23.5t-4 -14.5l-2 -5h-385q-8 14 -8 43z" />
    <glyph glyph-name="uni2011" unicode="&#x2011;" horiz-adv-x="729" 
d="M164 594q0 13 2 23.5t4 14.5l2 5h385q8 -14 8 -43q0 -13 -2 -23.5t-4 -14.5l-2 -5h-385q-8 14 -8 43z" />
    <glyph glyph-name="figuredash" unicode="&#x2012;" horiz-adv-x="729" 
d="M164 594q0 13 2 23.5t4 14.5l2 5h385q8 -14 8 -43q0 -13 -2 -23.5t-4 -14.5l-2 -5h-385q-8 14 -8 43z" />
    <glyph glyph-name="endash" unicode="&#x2013;" horiz-adv-x="1138" 
d="M164 594q0 13 2 23.5t4 14.5l2 5h795q8 -14 8 -43q0 -13 -2 -23.5t-4 -14.5l-2 -5h-795q-8 14 -8 43z" />
    <glyph glyph-name="emdash" unicode="&#x2014;" horiz-adv-x="1650" 
d="M164 594q0 13 2 23.5t4 14.5l2 5h1307q8 -14 8 -43q0 -13 -2 -23.5t-4 -14.5l-2 -5h-1307q-8 14 -8 43z" />
    <glyph glyph-name="quoteleft" unicode="&#x2018;" horiz-adv-x="425" 
d="M141 1141v84q0 46 11.5 88.5t27.5 70.5t32.5 49.5t27.5 31.5l12 10l43 -33q-7 -7 -17.5 -20t-30.5 -59t-24 -99l49 -7v-116q-22 -8 -65 -8q-19 0 -35.5 2t-23.5 4z" />
    <glyph glyph-name="quoteright" unicode="&#x2019;" horiz-adv-x="411" 
d="M133 1165q7 7 17 20.5t29.5 59.5t23.5 98q-14 0 -25 2.5t-16 4.5l-4 2v114q20 9 63 9q19 0 35.5 -2.5t23.5 -4.5l7 -2v-82q0 -46 -11.5 -89t-27.5 -71.5t-32.5 -49.5t-27.5 -31l-12 -10z" />
    <glyph glyph-name="quotedblleft" unicode="&#x201c;" horiz-adv-x="585" 
d="M121 1139v82q0 46 11 89.5t27 71.5t32 49.5t27 31.5l11 10l45 -33q-7 -7 -17 -20.5t-29 -59.5t-23 -98q14 0 25 -2t16 -4l4 -3v-114q-21 -9 -66 -9q-18 0 -34 2t-22 4zM350 1139v82q0 46 11 89.5t27 71.5t32.5 49.5t27.5 31.5l11 10l45 -33q-7 -7 -17.5 -20.5
t-29.5 -59.5t-23 -98q14 0 25 -2t15 -4l5 -3v-114q-20 -9 -65 -9q-19 0 -35 2t-23 4z" />
    <glyph glyph-name="quotedblright" unicode="&#x201d;" horiz-adv-x="641" 
d="M133 1165q7 7 17.5 20.5t29.5 59.5t23 98q-14 0 -25 2.5t-16 4.5l-4 2v114q20 9 65 9q19 0 35 -2.5t22 -4.5l7 -2v-82q0 -46 -11 -89t-27.5 -71.5t-32.5 -49.5t-27 -31l-11 -10zM362 1165q7 7 17 20.5t29.5 59.5t23.5 98q-14 0 -25 2.5t-15 4.5l-5 2v114q21 9 66 9
q18 0 34 -2.5t23 -4.5l6 -2v-82q0 -46 -11 -89t-27 -71.5t-32 -49.5t-27 -31l-11 -10z" />
    <glyph glyph-name="dagger" unicode="&#x2020;" horiz-adv-x="1187" 
d="M68 928q0 14 2 25t4 15l2 5l483 -12l-14 469q18 6 51 6q14 0 26 -1.5t18 -2.5l5 -2l-14 -469l481 12q8 -16 8 -45q0 -13 -2 -24.5t-4 -17.5l-2 -5l-481 12l14 -1116l-49 -37l-51 37l14 1116l-483 -12q-8 18 -8 47z" />
    <glyph glyph-name="daggerdbl" unicode="&#x2021;" horiz-adv-x="1296" 
d="M123 258q0 15 2 26.5t4 15.5l2 5l481 -14l-14 301l14 301l-483 -12q-6 14 -6 47q0 15 1.5 26t3.5 15l1 4l483 -12l-14 469q16 6 51 6q16 0 28 -1.5t17 -2.5l4 -2l-14 -469l481 12q9 -14 9 -45q0 -15 -2 -26.5t-4 -15.5l-3 -5l-481 12l14 -301l-14 -301l483 14
q7 -14 7 -47q0 -15 -2 -26t-4 -15l-1 -4l-483 14l14 -471q-16 -6 -51 -6q-16 0 -28 1.5t-17 2.5l-4 2l14 471l-481 -14q-8 14 -8 45z" />
    <glyph glyph-name="bullet" unicode="&#x2022;" horiz-adv-x="610" 
d="M213 578q0 42 26.5 67t65.5 25q40 0 66 -25t26 -67q0 -41 -26 -66t-66 -25q-39 0 -65.5 25.5t-26.5 65.5z" />
    <glyph glyph-name="ellipsis" unicode="&#x2026;" horiz-adv-x="1114" 
d="M158 8v115q22 8 65 8q19 0 35.5 -2t23.5 -4l7 -2v-115q-23 -8 -66 -8q-19 0 -35.5 2t-23.5 4zM494 8v115q20 8 63 8q19 0 35.5 -2t23.5 -4l7 -2v-115q-23 -8 -66 -8q-19 0 -35 2t-22 4zM827 8v115q21 8 64 8q19 0 35.5 -2t23.5 -4l6 -2v-115q-22 -8 -65 -8q-19 0 -35 2
t-22 4z" />
    <glyph glyph-name="uni202F" unicode="&#x202f;" horiz-adv-x="371" 
 />
    <glyph glyph-name="uni205F" unicode="&#x205f;" horiz-adv-x="464" 
 />
    <glyph glyph-name="Euro" unicode="&#x20ac;" horiz-adv-x="1198" 
d="M113 487q-6 35 12 76h149q-4 78 -4 123q0 82 4 127h-161q-6 37 12 78h158q65 502 481 502q92 0 167.5 -16t104.5 -32l29 -16q-3 -48 -33 -74q-11 6 -32 14t-87.5 22t-134.5 14q-163 0 -261.5 -95t-127.5 -319h553q7 -44 -14 -78h-549q-2 -41 -2 -129q0 -84 2 -121h479
q7 -41 -14 -76h-457q14 -118 47.5 -200.5t85.5 -129t114.5 -67t143.5 -20.5q75 0 143.5 12t100.5 24l31 13q29 -26 32 -76q-12 -7 -35.5 -17.5t-106.5 -28t-179 -17.5q-212 0 -331.5 125t-151.5 382h-168z" />
    <glyph glyph-name="trademark" unicode="&#x2122;" horiz-adv-x="1288" 
d="M88 1450q0 17 4 25h416q6 -12 6 -25q0 -12 -6 -27h-178v-532q-9 -6 -29 -6q-8 0 -14.5 1.5t-9.5 3.5l-3 1v532h-182q-4 16 -4 27zM616 891v577q10 7 33 7q10 0 31 -7l113 -221q38 -73 69 -149q33 79 72 143l115 227q12 7 32 7q10 0 18.5 -1.5t11.5 -3.5l3 -2v-577
q-8 -6 -24 -6q-8 0 -15 1.5t-9 3.5l-3 1v262v240q-35 -76 -64 -127l-112 -217q-9 -7 -27 -7q-8 0 -14.5 2t-9.5 4l-2 1l-107 217l-21.5 41l-24 46.5l-19.5 39.5q4 -72 4 -238v-264q-9 -6 -25 -6q-7 0 -13.5 1.5t-9.5 3.5z" />
    <glyph glyph-name="lozenge" unicode="&#x25ca;" horiz-adv-x="1120" 
d="M106 721l431 704h47l436 -704l-436 -707h-47zM215 719l346 -578l352 578l-352 577z" />
    <glyph glyph-name="uni25FC" unicode="&#x25fc;" horiz-adv-x="1075" 
d="M0 0v1075h1075v-1075h-1075z" />
    </font>
</defs>
</svg>
